<?xml version="1.0" encoding="UTF-8" standalone="no" ?>
<COLLADA version="1.4.1" xmlns="http://www.collada.org/2005/11/COLLADASchema">

  <asset>
    <created>2024-06-28T10:02:34</created>
    <modified>2024-06-28T10:02:34</modified>
    <unit meter="1" name="meters"/>
    <up_axis>Z_UP</up_axis>
  </asset>

  <library_materials>
    <material id="ID9" name="ID9">
      <instance_effect url="#ID9-fx"/>
    </material>
  </library_materials>

  <library_effects>
    <effect id="ID9-fx" name="ID9">
      <profile_COMMON>
        <technique sid="COMMON">
          <lambert>
            <diffuse>
              <color sid="diffuse">0.913725 0.913725 0.913725 1</color>
            </diffuse>
            <transparent opaque="A_ONE">
              <color sid="transparent">1 1 1 1</color>
            </transparent>
            <transparency>
              <float sid="transparency">1</float>
            </transparency>
          </lambert>
        </technique>
        <extra>
          <technique profile="OTHER">
            <double_sided>1</double_sided>
          </technique>
        </extra>
      </profile_COMMON>
    </effect>
  </library_effects>

  <library_geometries>
    <geometry id="ID3">
      <mesh>
        <source id="ID4">
          <float_array count="3768" id="ID5">0.04 0.0225 0.055 0.05 0.0125 0.055 0.05 0.0125 0.05 0.04 0.0225 0.05 0.04 0.0225 -0.05 0.05 0.0125 -0.05 0.05 0.0125 -0.055 0.04 0.0225 -0.055 0.05 -0.0275 -0.055 0.05 -0.0225 0.05 0.05 -0.0275 0.055 0.05 0.0125 0.05 0.05 0.0125 0.055 0.05 0.0125 -0.055 0.05 0.0125 -0.05 0.05 -0.0225 -0.05 -0.05 0.0225 0.055 -0.05 -0.0225 0.05 -0.05 -0.0275 0.055 -0.05 -0.0225 -0.05 -0.05 0.0225 -0.05 -0.05 0.0225 -0.055 -0.05 -0.0275 -0.055 -0.05 0.0225 0.05 0.0159509 -0.0225 -0.0257344 0.0156073 -0.0225 -0.0261911 -0.0313504 -0.0225 -0.0408053 -0.0325139 -0.0225 0.0474 -0.05 -0.0225 0.05 -0.0319231 -0.0225 0.0473482 0.0163663 -0.0225 -0.0253418 0.016082 -0.0225 0.0255958 -0.0350491 -0.0225 0.0462656 -0.0353927 -0.0225 0.0458089 0.0179166 -0.0225 0.031352 0.05 -0.0225 0.05 0.0184861 -0.0225 0.0314 -0.0299089 -0.0225 0.0461849 0.0165186 -0.0225 0.0252271 0.0190769 -0.0225 0.0313482 -0.0308132 -0.0225 0.046944 -0.0303278 -0.0225 0.046604 -0.0313504 -0.0225 0.0471947 -0.0336368 -0.0225 0.0472092 -0.0330834 -0.0225 0.047352 -0.0346337 -0.0225 0.0466582 -0.0341585 -0.0225 0.0469758 -0.0359085 -0.0225 0.0441906 -0.0358925 -0.0225 0.0436193 -0.0358286 -0.0225 0.0447566 -0.0356551 -0.0225 0.0453011 -0.035781 -0.0225 0.0430588 -0.0355772 -0.0225 0.0425248 -0.0352868 -0.0225 0.0420325 -0.034918 -0.0225 0.0415958 -0.05 -0.0225 -0.05 -0.0344814 -0.0225 0.0412271 0.0153449 -0.0225 -0.0266989 0.0151714 -0.0225 -0.0272434 -0.0303278 -0.0225 -0.041396 -0.0328946 -0.0225 0.0406214 -0.0323232 -0.0225 0.0406054 -0.0325139 -0.0225 -0.0406 -0.0312128 -0.0225 0.0408588 -0.030705 -0.0225 0.0411211 0.0154228 -0.0225 0.0265248 -0.0299089 -0.0225 -0.0418151 0.0168415 -0.0225 -0.0250242 0.0181054 -0.0225 0.0246214 0.0186768 -0.0225 0.0246053 0.0184861 -0.0225 -0.0246 0.0173632 -0.0225 -0.0247908 0.0170109 -0.0225 0.0249367 0.0175449 -0.0225 0.0247329 0.0190769 -0.0225 -0.0246518 0.0192427 -0.0225 0.0246852 0.0196496 -0.0225 -0.0248053 0.0218345 -0.0225 -0.0274098 0.05 -0.0225 -0.05 0.0218861 -0.0225 -0.028 0.0168415 -0.0225 0.0309758 -0.0293188 -0.0225 0.0451624 -0.0295691 -0.0225 0.0456994 0.0157132 -0.0225 0.0260325 0.0173632 -0.0225 0.0312092 0.0150915 -0.0225 -0.0278094 0.0163663 -0.0225 0.0306582 0.0216812 -0.0225 -0.0268376 0.0214309 -0.0225 -0.0263006 0.0206722 -0.0225 -0.025396 0.0207517 -0.0225 0.0254648 0.0210911 -0.0225 -0.0258151 0.020295 -0.0225 0.0251211 0.0201868 -0.0225 -0.025056 0.0197872 -0.0225 0.0248588 -0.0291655 -0.0225 0.0445902 -0.0308132 -0.0225 -0.041056 0.0159509 -0.0225 0.0302656 0.015219 -0.0225 0.0270588 -0.0291619 -0.0225 0.0434305 -0.0291139 -0.0225 0.044 0.0156073 -0.0225 0.0298089 0.0151075 -0.0225 -0.0283807 -0.0295691 -0.0225 -0.0423006 -0.0355772 -0.0225 -0.0454752 -0.0352868 -0.0225 -0.0459675 0.015219 -0.0225 -0.0289412 -0.0293188 -0.0225 -0.0428376 0.0154228 -0.0225 -0.0294752 -0.0291655 -0.0225 -0.0434098 -0.0291139 -0.0225 -0.044 0.0157132 -0.0225 -0.0299675 0.0165186 -0.0225 -0.0307729 -0.0295381 -0.0225 -0.0456446 -0.0293047 -0.0225 -0.0451229 0.016082 -0.0225 -0.0304042 -0.0291619 -0.0225 -0.0445695 -0.0302483 -0.0225 -0.0465352 -0.030705 -0.0225 -0.0468789 0.0186768 -0.0225 -0.0313947 0.0181054 -0.0225 -0.0313786 0.0197872 -0.0225 -0.0311412 0.0192427 -0.0225 -0.0313148 0.0207517 -0.0225 -0.0305352 0.020295 -0.0225 -0.0308789 0.0214619 -0.0225 -0.0296446 0.0211444 -0.0225 -0.0301199 0.0218381 -0.0225 -0.0285695 0.0216953 -0.0225 -0.029123 0.0211444 -0.0225 0.0258801 0.0216812 -0.0225 0.0291624 0.0218345 -0.0225 0.0285902 0.0218861 -0.0225 0.028 0.0210911 -0.0225 0.0301849 0.0214309 -0.0225 0.0296994 0.0201868 -0.0225 0.030944 0.0206722 -0.0225 0.030604 0.0196496 -0.0225 0.0311947 0.0153449 -0.0225 0.0293011 -0.0293047 -0.0225 0.0428771 0.0151714 -0.0225 0.0287566 -0.0295381 -0.0225 0.0423554 -0.0298556 -0.0225 0.0418801 0.0150915 -0.0225 0.0281906 0.0151075 -0.0225 0.0276193 -0.0302483 -0.0225 0.0414648 0.0179166 -0.0225 -0.024648 0.0214619 -0.0225 0.0263554 0.0216953 -0.0225 0.0268771 0.0218381 -0.0225 0.0274305 -0.0298556 -0.0225 -0.0461199 0.0170109 -0.0225 -0.0310633 0.0175449 -0.0225 -0.0312671 -0.0346337 -0.0225 -0.0413418 -0.0317573 -0.0225 0.0406852 -0.0319231 -0.0225 -0.0406518 -0.0330834 -0.0225 -0.040648 -0.0336368 -0.0225 -0.0407908 -0.0334551 -0.0225 0.0407329 -0.0339891 -0.0225 0.0409367 -0.0341585 -0.0225 -0.0410242 -0.0353927 -0.0225 -0.0421911 -0.0350491 -0.0225 -0.0417344 -0.0358286 -0.0225 -0.0432434 -0.0356551 -0.0225 -0.0426989 -0.0358925 -0.0225 -0.0443807 -0.0359085 -0.0225 -0.0438094 -0.035781 -0.0225 -0.0449412 -0.0323232 -0.0225 -0.0473946 -0.0344814 -0.0225 -0.0467729 -0.034918 -0.0225 -0.0464042 -0.0334551 -0.0225 -0.0472671 -0.0339891 -0.0225 -0.0470633 -0.0328946 -0.0225 -0.0473786 -0.0312128 -0.0225 -0.0471412 -0.0317573 -0.0225 -0.0473148 0.0233818 0.00450979 -0.05 0.0229117 0.00481692 -0.05 -0.0233818 0.00450979 -0.05 0.026104 0.0107158 -0.05 0.04 0.0225 -0.05 0.0255596 0.0108536 -0.05 0.05 0.0125 -0.05 0.0281136 0.00613424 -0.05 0.0278464 0.00564038 -0.05 0.025 0.0041 -0.05 0.0244404 0.00414637 -0.05 0.05 -0.0225 -0.05 -0.028296 0.00833465 -0.05 -0.05 0.0225 -0.05 -0.0283884 0.00778077 -0.05 -0.023896 0.00428422 -0.05 -0.0244404 0.00414637 -0.05 0.023896 0.00428422 -0.05 -0.05 -0.0225 -0.05 0.0221536 0.00564038 -0.05 0.0218864 0.00613424 -0.05 -0.0221536 0.00564038 -0.05 0.0224985 0.00519724 -0.05 -0.0224985 0.00519724 -0.05 -0.0229117 0.00481692 -0.05 0.0216116 0.00721923 -0.05 -0.0216116 0.00721923 -0.05 -0.021704 0.00666535 -0.05 0.021704 0.00666535 -0.05 -0.0218864 0.00613424 -0.05 0.0218864 0.00886576 -0.05 -0.0218864 0.00886576 -0.05 -0.021704 0.00833465 -0.05 0.0229117 0.0101831 -0.05 -0.0224985 0.00980276 -0.05 0.0224985 0.00980276 -0.05 -0.0229117 0.0101831 -0.05 -0.0221536 0.00935962 -0.05 0.0233818 0.0104902 -0.05 -0.0233818 0.0104902 -0.05 0.023896 0.0107158 -0.05 -0.023896 0.0107158 -0.05 -0.0275015 0.00519724 -0.05 -0.0278464 0.00564038 -0.05 0.0244404 0.0108536 -0.05 -0.0281136 0.00886576 -0.05 -0.0278464 0.00935962 -0.05 0.025 0.0109 -0.05 0.0266182 0.0104902 -0.05 0.0275015 0.00980276 -0.05 0.0270883 0.0101831 -0.05 0.0281136 0.00886576 -0.05 0.0278464 0.00935962 -0.05 0.0283884 0.00778077 -0.05 0.028296 0.00833465 -0.05 0.028296 0.00666535 -0.05 0.0283884 0.00721923 -0.05 0.0275015 0.00519724 -0.05 0.0270883 0.00481692 -0.05 0.026104 0.00428422 -0.05 0.0266182 0.00450979 -0.05 0.0255596 0.00414637 -0.05 -0.0216116 0.00778077 -0.05 0.0216116 0.00778077 -0.05 0.021704 0.00833465 -0.05 -0.026104 0.00428422 -0.05 -0.0255596 0.00414637 -0.05 -0.025 0.0041 -0.05 -0.0270883 0.00481692 -0.05 -0.0266182 0.00450979 -0.05 -0.0281136 0.00613424 -0.05 -0.0283884 0.00721923 -0.05 -0.028296 0.00666535 -0.05 -0.0244404 0.0108536 -0.05 -0.025 0.0109 -0.05 -0.0270883 0.0101831 -0.05 -0.0275015 0.00980276 -0.05 -0.026104 0.0107158 -0.05 -0.0266182 0.0104902 -0.05 -0.0255596 0.0108536 -0.05 0.0221536 0.00935962 -0.05 -0.05 0.0225 -0.05 0.04 0.0225 -0.055 -0.05 0.0225 -0.055 0.04 0.0225 -0.05 0.05 0.0125 -0.055 0.0275015 0.00519724 -0.055 0.0278464 0.00564038 -0.055 0.0233818 0.00450979 -0.055 -0.0233818 0.00450979 -0.055 0.0229117 0.00481692 -0.055 -0.05 -0.0275 -0.055 0.0244404 0.00414637 -0.055 0.05 -0.0275 -0.055 0.025 0.0041 -0.055 0.026104 0.0107158 -0.055 0.0255596 0.0108536 -0.055 0.04 0.0225 -0.055 0.023896 0.00428422 -0.055 0.0221536 0.00564038 -0.055 -0.0221536 0.00564038 -0.055 0.0218864 0.00613424 -0.055 0.0224985 0.00519724 -0.055 -0.0229117 0.00481692 -0.055 -0.0224985 0.00519724 -0.055 -0.021704 0.00666535 -0.055 -0.0216116 0.00721923 -0.055 0.0216116 0.00721923 -0.055 0.021704 0.00666535 -0.055 -0.0218864 0.00613424 -0.055 0.0218864 0.00886576 -0.055 -0.021704 0.00833465 -0.055 -0.0218864 0.00886576 -0.055 0.021704 0.00833465 -0.055 0.0216116 0.00778077 -0.055 -0.0216116 0.00778077 -0.055 -0.0229117 0.0101831 -0.055 0.0229117 0.0101831 -0.055 -0.0224985 0.00980276 -0.055 -0.0221536 0.00935962 -0.055 0.0224985 0.00980276 -0.055 -0.0233818 0.0104902 -0.055 0.0233818 0.0104902 -0.055 -0.023896 0.0107158 -0.055 0.023896 0.0107158 -0.055 -0.0275015 0.00519724 -0.055 -0.0278464 0.00564038 -0.055 0.0244404 0.0108536 -0.055 -0.0281136 0.00886576 -0.055 -0.05 0.0225 -0.055 -0.0278464 0.00935962 -0.055 0.025 0.0109 -0.055 0.0266182 0.0104902 -0.055 0.0275015 0.00980276 -0.055 0.0270883 0.0101831 -0.055 0.0281136 0.00886576 -0.055 0.0278464 0.00935962 -0.055 0.0283884 0.00778077 -0.055 0.028296 0.00833465 -0.055 0.028296 0.00666535 -0.055 0.0283884 0.00721923 -0.055 0.0281136 0.00613424 -0.055 0.0270883 0.00481692 -0.055 0.0266182 0.00450979 -0.055 0.0255596 0.00414637 -0.055 0.026104 0.00428422 -0.055 -0.023896 0.00428422 -0.055 -0.026104 0.00428422 -0.055 -0.0255596 0.00414637 -0.055 -0.025 0.0041 -0.055 -0.0270883 0.00481692 -0.055 -0.0266182 0.00450979 -0.055 -0.0281136 0.00613424 -0.055 -0.0283884 0.00721923 -0.055 -0.028296 0.00666535 -0.055 -0.028296 0.00833465 -0.055 -0.0283884 0.00778077 -0.055 -0.0244404 0.0108536 -0.055 -0.025 0.0109 -0.055 -0.0270883 0.0101831 -0.055 -0.0275015 0.00980276 -0.055 -0.026104 0.0107158 -0.055 -0.0266182 0.0104902 -0.055 -0.0255596 0.0108536 -0.055 0.0221536 0.00935962 -0.055 -0.0244404 0.00414637 -0.055 0.0157525 -0.0275 0.0259782 0.0159338 -0.0275 -0.0257537 0.0161335 -0.0275 0.0255453 -0.0313812 -0.0275 0.0472058 -0.05 -0.0275 0.055 -0.0319393 -0.0275 0.0473511 0.0163502 -0.0275 0.0306453 -0.0291902 -0.0275 0.0447163 0.0159338 -0.0275 0.0302463 -0.0325139 -0.0275 0.0474 -0.05 -0.0275 -0.055 -0.0352475 -0.0275 0.0419782 0.05 -0.0275 0.055 -0.0303779 -0.0275 0.0466453 -0.0308557 -0.0275 0.0469682 0.016828 -0.0275 0.0309682 -0.0296187 -0.0275 0.0457826 -0.0293591 -0.0275 0.0452677 -0.0299616 -0.0275 0.0462463 -0.0292629 -0.0275 0.0430044 0.0151624 -0.0275 0.0287163 0.0153313 -0.0275 0.0292677 -0.0291414 -0.0275 0.0435681 0.0155909 -0.0275 0.0297826 -0.0291169 -0.0275 0.0441443 0.0152352 -0.0275 0.0270044 0.0151137 -0.0275 0.0275681 -0.0301613 -0.0275 0.0415454 0.0150892 -0.0275 0.0281443 -0.0294779 -0.0275 0.0424693 -0.0297803 -0.0275 0.0419782 0.02039 -0.0275 0.0251831 0.0201443 -0.0275 -0.0250318 0.0206221 -0.0275 -0.0253547 0.0190607 -0.0275 -0.0246489 0.0196188 -0.0275 -0.0247942 0.0193428 -0.0275 0.0247097 -0.0311134 -0.0275 0.0409018 0.0154502 -0.0275 0.0264693 -0.03061 -0.0275 0.0411831 -0.0328022 -0.0275 0.0406122 -0.0325139 -0.0275 -0.0406 -0.0322255 -0.0275 0.0406122 -0.0316572 -0.0275 0.0407097 -0.0319393 -0.0275 -0.0406489 0.0151624 -0.0275 -0.0272837 0.0153313 -0.0275 -0.0267323 -0.0303779 -0.0275 -0.0413547 0.0155909 -0.0275 -0.0262174 -0.0308557 -0.0275 -0.0410318 -0.0333706 -0.0275 0.0407097 -0.0336466 -0.0275 -0.0407942 -0.0330885 -0.0275 -0.0406489 -0.0299616 -0.0275 -0.0417537 0.0150892 -0.0275 -0.0278557 -0.0350662 -0.0275 -0.0417537 -0.0346498 -0.0275 -0.0413547 -0.0348665 -0.0275 0.0415454 -0.034172 -0.0275 -0.0410318 -0.0339143 -0.0275 0.0409018 -0.0344178 -0.0275 0.0411831 -0.0358376 -0.0275 -0.0432837 -0.0359108 -0.0275 -0.0438557 -0.0354091 -0.0275 -0.0422174 -0.0356687 -0.0275 -0.0427323 -0.0357648 -0.0275 0.0430044 -0.0355498 -0.0275 0.0424693 -0.0359108 -0.0275 0.0441443 -0.0358863 -0.0275 0.0435681 -0.0356687 -0.0275 0.0452677 -0.0358376 -0.0275 0.0447163 -0.0350662 -0.0275 0.0462463 -0.0354091 -0.0275 0.0457826 -0.034172 -0.0275 0.0469682 -0.0346498 -0.0275 0.0466453 -0.0330885 -0.0275 0.0473511 -0.0336466 -0.0275 0.0472058 0.0218831 -0.0275 0.0281443 0.0218098 -0.0275 0.0287163 0.0210384 -0.0275 -0.0257537 0.0212197 -0.0275 0.0259782 0.0208387 -0.0275 0.0255453 0.0181978 -0.0275 -0.0313878 0.05 -0.0275 -0.055 0.0187745 -0.0275 -0.0313878 0.0215221 -0.0275 0.0264693 0.0213813 -0.0275 -0.0262174 0.0216409 -0.0275 -0.0267323 0.0217371 -0.0275 0.0270044 0.0184861 -0.0275 0.0314 0.0190607 -0.0275 0.0313511 0.0218098 -0.0275 -0.0272837 0.0218586 -0.0275 -0.0284319 0.0218831 -0.0275 -0.0278557 0.0215221 -0.0275 -0.0295307 0.0217371 -0.0275 -0.0289956 0.0208387 -0.0275 -0.0304547 0.0212197 -0.0275 -0.0300218 0.0198866 -0.0275 -0.0310982 0.02039 -0.0275 -0.0308169 0.0193428 -0.0275 -0.0312903 0.0151137 -0.0275 -0.0284319 -0.0293591 -0.0275 -0.0427323 -0.0291902 -0.0275 -0.0432837 0.0176294 -0.0275 -0.0312903 -0.0296187 -0.0275 -0.0422174 -0.0313812 -0.0275 -0.0407942 0.0170857 -0.0275 0.0249018 0.016828 -0.0275 -0.0250318 0.0173534 -0.0275 -0.0247942 0.0198866 -0.0275 0.0249018 0.0173534 -0.0275 0.0312058 0.0179115 -0.0275 0.0313511 0.0201443 -0.0275 0.0309682 0.0196188 -0.0275 0.0312058 0.0210384 -0.0275 0.0302463 0.0206221 -0.0275 0.0306453 0.0216409 -0.0275 0.0292677 0.0213813 -0.0275 0.0297826 0.0218586 -0.0275 0.0275681 0.0187745 -0.0275 0.0246122 0.0181978 -0.0275 0.0246122 0.0184861 -0.0275 -0.0246 0.0179115 -0.0275 -0.0246489 0.0176294 -0.0275 0.0247097 0.0163502 -0.0275 -0.0253547 0.0165822 -0.0275 0.0251831 0.0152352 -0.0275 -0.0289956 -0.0291169 -0.0275 -0.0438557 -0.0316572 -0.0275 -0.0472903 0.0157525 -0.0275 -0.0300218 0.0154502 -0.0275 -0.0295307 -0.0291414 -0.0275 -0.0444319 0.0161335 -0.0275 -0.0304547 0.0165822 -0.0275 -0.0308169 -0.0292629 -0.0275 -0.0449956 -0.0294779 -0.0275 -0.0455307 0.0170857 -0.0275 -0.0310982 -0.0297803 -0.0275 -0.0460218 -0.0301613 -0.0275 -0.0464546 -0.0311134 -0.0275 -0.0470982 -0.03061 -0.0275 -0.0468169 -0.0328022 -0.0275 -0.0473878 -0.0322255 -0.0275 -0.0473878 -0.0339143 -0.0275 -0.0470982 -0.0333706 -0.0275 -0.0472903 -0.0348665 -0.0275 -0.0464546 -0.0344178 -0.0275 -0.0468169 -0.0355498 -0.0275 -0.0455307 -0.0352475 -0.0275 -0.0460218 -0.0358863 -0.0275 -0.0444319 -0.0357648 -0.0275 -0.0449956 -0.0238673 0.0107058 0.055 0.04 0.0225 0.055 -0.0244254 0.0108511 0.055 0.0252883 0.00411225 0.055 0.05 -0.0275 0.055 0.0258567 0.00420971 0.055 0.0261327 0.0107058 0.055 0.0255746 0.0108511 0.055 0.0283237 0.00821631 0.055 0.05 0.0125 0.055 0.0281548 0.00876771 0.055 0.025 0.0109 0.055 -0.0216031 0.0076443 0.055 0.0216763 0.00821631 0.055 -0.0216763 0.00821631 0.055 0.0266582 0.0104682 0.055 0.0275523 0.00974629 0.055 0.0271359 0.0101453 0.055 0.0278952 0.00928264 0.055 0.0283969 0.0076443 0.055 0.0283725 0.00706814 0.055 0.028251 0.0065044 0.055 0.0280359 0.00596931 0.055 0.0277336 0.00547825 0.055 0.0273526 0.00504535 0.055 0.0269039 0.00468307 0.055 0.0264005 0.00440182 0.055 0.0247117 0.00411225 0.055 0.0241433 0.00420971 0.055 0.0222664 0.00547825 0.055 -0.0222664 0.00547825 0.055 -0.0226474 0.00504535 0.055 -0.05 -0.0275 0.055 -0.0218452 0.00876771 0.055 0.0218452 0.00876771 0.055 0.0235995 0.00440182 0.055 0.0230961 0.00468307 0.055 -0.0235995 0.00440182 0.055 0.0221048 0.00928264 0.055 0.0228641 0.0101453 0.055 -0.0224477 0.00974629 0.055 0.0224477 0.00974629 0.055 -0.0221048 0.00928264 0.055 0.0233418 0.0104682 0.055 -0.0228641 0.0101453 0.055 -0.0233418 0.0104682 0.055 0.0238673 0.0107058 0.055 -0.05 0.0225 0.055 0.0244254 0.0108511 0.055 -0.025 0.0109 0.055 0.0216031 0.0076443 0.055 -0.0273526 0.00504535 0.055 -0.0277336 0.00547825 0.055 0.0216275 0.00706814 0.055 -0.0216275 0.00706814 0.055 -0.021749 0.0065044 0.055 0.021749 0.0065044 0.055 -0.0219641 0.00596931 0.055 0.0219641 0.00596931 0.055 0.0226474 0.00504535 0.055 -0.0230961 0.00468307 0.055 -0.0241433 0.00420971 0.055 -0.0247117 0.00411225 0.055 -0.0258567 0.00420971 0.055 -0.0252883 0.00411225 0.055 -0.0269039 0.00468307 0.055 -0.0264005 0.00440182 0.055 -0.0280359 0.00596931 0.055 -0.0283725 0.00706814 0.055 -0.028251 0.0065044 0.055 -0.0283237 0.00821631 0.055 -0.0283969 0.0076443 0.055 -0.0278952 0.00928264 0.055 -0.0281548 0.00876771 0.055 -0.0271359 0.0101453 0.055 -0.0275523 0.00974629 0.055 -0.0261327 0.0107058 0.055 -0.0266582 0.0104682 0.055 -0.0255746 0.0108511 0.055 -0.05 0.0225 0.055 0.04 0.0225 0.05 -0.05 0.0225 0.05 0.04 0.0225 0.055 0.05 0.0125 0.05 0.0278464 0.00564038 0.05 0.0281136 0.00613424 0.05 -0.0283884 0.00778077 0.05 -0.05 0.0225 0.05 -0.028296 0.00833465 0.05 0.0233818 0.00450979 0.05 -0.0233818 0.00450979 0.05 0.0229117 0.00481692 0.05 -0.05 -0.0225 0.05 0.0244404 0.00414637 0.05 0.05 -0.0225 0.05 0.025 0.0041 0.05 0.026104 0.0107158 0.05 0.0255596 0.0108536 0.05 0.04 0.0225 0.05 -0.023896 0.00428422 0.05 0.023896 0.00428422 0.05 -0.0244404 0.00414637 0.05 0.0221536 0.00564038 0.05 -0.0221536 0.00564038 0.05 0.0218864 0.00613424 0.05 0.0224985 0.00519724 0.05 -0.0229117 0.00481692 0.05 -0.0224985 0.00519724 0.05 0.0216116 0.00721923 0.05 -0.021704 0.00666535 0.05 -0.0216116 0.00721923 0.05 0.021704 0.00666535 0.05 -0.0218864 0.00613424 0.05 0.0218864 0.00886576 0.05 -0.021704 0.00833465 0.05 -0.0218864 0.00886576 0.05 0.021704 0.00833465 0.05 0.0216116 0.00778077 0.05 -0.0216116 0.00778077 0.05 -0.0229117 0.0101831 0.05 0.0229117 0.0101831 0.05 -0.0224985 0.00980276 0.05 -0.0221536 0.00935962 0.05 0.0224985 0.00980276 0.05 -0.0233818 0.0104902 0.05 0.0233818 0.0104902 0.05 -0.023896 0.0107158 0.05 0.023896 0.0107158 0.05 -0.0275015 0.00519724 0.05 -0.0278464 0.00564038 0.05 0.0244404 0.0108536 0.05 -0.0281136 0.00886576 0.05 -0.0278464 0.00935962 0.05 0.025 0.0109 0.05 0.0266182 0.0104902 0.05 0.0275015 0.00980276 0.05 0.0270883 0.0101831 0.05 0.0281136 0.00886576 0.05 0.0278464 0.00935962 0.05 0.0283884 0.00778077 0.05 0.028296 0.00833465 0.05 0.028296 0.00666535 0.05 0.0283884 0.00721923 0.05 0.0275015 0.00519724 0.05 0.0270883 0.00481692 0.05 0.026104 0.00428422 0.05 0.0266182 0.00450979 0.05 0.0255596 0.00414637 0.05 -0.026104 0.00428422 0.05 -0.0255596 0.00414637 0.05 -0.025 0.0041 0.05 -0.0270883 0.00481692 0.05 -0.0266182 0.00450979 0.05 -0.0281136 0.00613424 0.05 -0.0283884 0.00721923 0.05 -0.028296 0.00666535 0.05 -0.0244404 0.0108536 0.05 -0.025 0.0109 0.05 -0.0270883 0.0101831 0.05 -0.0275015 0.00980276 0.05 -0.026104 0.0107158 0.05 -0.0266182 0.0104902 0.05 -0.0255596 0.0108536 0.05 0.0221536 0.00935962 0.05 -0.0303779 -0.0275 -0.0413547 -0.0303278 -0.0225 -0.041396 -0.0299616 -0.0275 -0.0417537 -0.0291414 -0.0275 -0.0444319 -0.0291169 -0.0275 -0.0438557 -0.0291139 -0.0225 -0.044 -0.0308132 -0.0225 -0.041056 -0.0308557 -0.0275 -0.0410318 -0.0313812 -0.0275 -0.0407942 -0.0313504 -0.0225 -0.0408053 -0.0319393 -0.0275 -0.0406489 -0.0319231 -0.0225 -0.0406518 -0.0325139 -0.0225 -0.0406 -0.0325139 -0.0275 -0.0406 -0.0299089 -0.0225 -0.0418151 -0.0295691 -0.0225 -0.0423006 -0.0296187 -0.0275 -0.0422174 -0.0293591 -0.0275 -0.0427323 -0.0293188 -0.0225 -0.0428376 -0.0291655 -0.0225 -0.0434098 -0.0291902 -0.0275 -0.0432837 -0.0297803 -0.0275 -0.0460218 -0.0294779 -0.0275 -0.0455307 -0.0295381 -0.0225 -0.0456446 -0.0292629 -0.0275 -0.0449956 -0.0291619 -0.0225 -0.0445695 -0.0293047 -0.0225 -0.0451229 -0.030705 -0.0225 -0.0468789 -0.0311134 -0.0275 -0.0470982 -0.03061 -0.0275 -0.0468169 -0.0298556 -0.0225 -0.0461199 -0.0302483 -0.0225 -0.0465352 -0.0301613 -0.0275 -0.0464546 -0.0322255 -0.0275 -0.0473878 -0.0323232 -0.0225 -0.0473946 -0.0328022 -0.0275 -0.0473878 -0.0316572 -0.0275 -0.0472903 -0.0312128 -0.0225 -0.0471412 -0.0317573 -0.0225 -0.0473148 -0.0344178 -0.0275 -0.0468169 -0.0339143 -0.0275 -0.0470982 -0.0339891 -0.0225 -0.0470633 -0.0334551 -0.0225 -0.0472671 -0.0333706 -0.0275 -0.0472903 -0.0328946 -0.0225 -0.0473786 -0.0352868 -0.0225 -0.0459675 -0.0355498 -0.0275 -0.0455307 -0.0352475 -0.0275 -0.0460218 -0.0344814 -0.0225 -0.0467729 -0.034918 -0.0225 -0.0464042 -0.0348665 -0.0275 -0.0464546 -0.0358863 -0.0275 -0.0444319 -0.0358925 -0.0225 -0.0443807 -0.0359108 -0.0275 -0.0438557 -0.0357648 -0.0275 -0.0449956 -0.0355772 -0.0225 -0.0454752 -0.035781 -0.0225 -0.0449412 -0.0354091 -0.0275 -0.0422174 -0.0356687 -0.0275 -0.0427323 -0.0356551 -0.0225 -0.0426989 -0.0358286 -0.0225 -0.0432434 -0.0358376 -0.0275 -0.0432837 -0.0359085 -0.0225 -0.0438094 -0.0353927 -0.0225 -0.0421911 -0.0350662 -0.0275 -0.0417537 -0.0350491 -0.0225 -0.0417344 -0.0346498 -0.0275 -0.0413547 -0.034172 -0.0275 -0.0410318 -0.0346337 -0.0225 -0.0413418 -0.0341585 -0.0225 -0.0410242 -0.0336466 -0.0275 -0.0407942 -0.0336368 -0.0225 -0.0407908 -0.0330885 -0.0275 -0.0406489 -0.0330834 -0.0225 -0.040648 0.0206221 -0.0275 0.0306453 0.0206722 -0.0225 0.030604 0.0210384 -0.0275 0.0302463 0.0218586 -0.0275 0.0275681 0.0218831 -0.0275 0.0281443 0.0218861 -0.0225 0.028 0.0201868 -0.0225 0.030944 0.0201443 -0.0275 0.0309682 0.0196188 -0.0275 0.0312058 0.0196496 -0.0225 0.0311947 0.0190607 -0.0275 0.0313511 0.0190769 -0.0225 0.0313482 0.0184861 -0.0225 0.0314 0.0184861 -0.0275 0.0314 0.0210911 -0.0225 0.0301849 0.0214309 -0.0225 0.0296994 0.0213813 -0.0275 0.0297826 0.0216409 -0.0275 0.0292677 0.0216812 -0.0225 0.0291624 0.0218345 -0.0225 0.0285902 0.0218098 -0.0275 0.0287163 0.0212197 -0.0275 0.0259782 0.0215221 -0.0275 0.0264693 0.0214619 -0.0225 0.0263554 0.0217371 -0.0275 0.0270044 0.0218381 -0.0225 0.0274305 0.0216953 -0.0225 0.0268771 0.020295 -0.0225 0.0251211 0.0198866 -0.0275 0.0249018 0.02039 -0.0275 0.0251831 0.0211444 -0.0225 0.0258801 0.0207517 -0.0225 0.0254648 0.0208387 -0.0275 0.0255453 0.0187745 -0.0275 0.0246122 0.0186768 -0.0225 0.0246053 0.0181978 -0.0275 0.0246122 0.0193428 -0.0275 0.0247097 0.0197872 -0.0225 0.0248588 0.0192427 -0.0225 0.0246852 0.0165822 -0.0275 0.0251831 0.0170857 -0.0275 0.0249018 0.0170109 -0.0225 0.0249367 0.0175449 -0.0225 0.0247329 0.0176294 -0.0275 0.0247097 0.0181054 -0.0225 0.0246214 0.0157132 -0.0225 0.0260325 0.0154502 -0.0275 0.0264693 0.0157525 -0.0275 0.0259782 0.0165186 -0.0225 0.0252271 0.016082 -0.0225 0.0255958 0.0161335 -0.0275 0.0255453 0.0151137 -0.0275 0.0275681 0.0151075 -0.0225 0.0276193 0.0150892 -0.0275 0.0281443 0.0152352 -0.0275 0.0270044 0.0154228 -0.0225 0.0265248 0.015219 -0.0225 0.0270588 0.0155909 -0.0275 0.0297826 0.0153313 -0.0275 0.0292677 0.0153449 -0.0225 0.0293011 0.0151714 -0.0225 0.0287566 0.0151624 -0.0275 0.0287163 0.0150915 -0.0225 0.0281906 0.0156073 -0.0225 0.0298089 0.0159338 -0.0275 0.0302463 0.0159509 -0.0225 0.0302656 0.0163502 -0.0275 0.0306453 0.016828 -0.0275 0.0309682 0.0163663 -0.0225 0.0306582 0.0168415 -0.0225 0.0309758 0.0173534 -0.0275 0.0312058 0.0173632 -0.0225 0.0312092 0.0179115 -0.0275 0.0313511 0.0179166 -0.0225 0.031352 0.0206221 -0.0275 -0.0253547 0.0206722 -0.0225 -0.025396 0.0210384 -0.0275 -0.0257537 0.0218586 -0.0275 -0.0284319 0.0218831 -0.0275 -0.0278557 0.0218861 -0.0225 -0.028 0.0201868 -0.0225 -0.025056 0.0201443 -0.0275 -0.0250318 0.0196188 -0.0275 -0.0247942 0.0196496 -0.0225 -0.0248053 0.0190607 -0.0275 -0.0246489 0.0190769 -0.0225 -0.0246518 0.0184861 -0.0225 -0.0246 0.0184861 -0.0275 -0.0246 0.0210911 -0.0225 -0.0258151 0.0214309 -0.0225 -0.0263006 0.0213813 -0.0275 -0.0262174 0.0216409 -0.0275 -0.0267323 0.0216812 -0.0225 -0.0268376 0.0218345 -0.0225 -0.0274098 0.0218098 -0.0275 -0.0272837 0.0212197 -0.0275 -0.0300218 0.0215221 -0.0275 -0.0295307 0.0214619 -0.0225 -0.0296446 0.0217371 -0.0275 -0.0289956 0.0218381 -0.0225 -0.0285695 0.0216953 -0.0225 -0.029123 0.020295 -0.0225 -0.0308789 0.0198866 -0.0275 -0.0310982 0.02039 -0.0275 -0.0308169 0.0211444 -0.0225 -0.0301199 0.0207517 -0.0225 -0.0305352 0.0208387 -0.0275 -0.0304547 0.0187745 -0.0275 -0.0313878 0.0186768 -0.0225 -0.0313947 0.0181978 -0.0275 -0.0313878 0.0193428 -0.0275 -0.0312903 0.0197872 -0.0225 -0.0311412 0.0192427 -0.0225 -0.0313148 0.0165822 -0.0275 -0.0308169 0.0170857 -0.0275 -0.0310982 0.0170109 -0.0225 -0.0310633 0.0175449 -0.0225 -0.0312671 0.0176294 -0.0275 -0.0312903 0.0181054 -0.0225 -0.0313786 0.0157132 -0.0225 -0.0299675 0.0154502 -0.0275 -0.0295307 0.0157525 -0.0275 -0.0300218 0.0165186 -0.0225 -0.0307729 0.016082 -0.0225 -0.0304042 0.0161335 -0.0275 -0.0304547 0.0151137 -0.0275 -0.0284319 0.0151075 -0.0225 -0.0283807 0.0150892 -0.0275 -0.0278557 0.0152352 -0.0275 -0.0289956 0.0154228 -0.0225 -0.0294752 0.015219 -0.0225 -0.0289412 0.0155909 -0.0275 -0.0262174 0.0153313 -0.0275 -0.0267323 0.0153449 -0.0225 -0.0266989 0.0151714 -0.0225 -0.0272434 0.0151624 -0.0275 -0.0272837 0.0150915 -0.0225 -0.0278094 0.0156073 -0.0225 -0.0261911 0.0159338 -0.0275 -0.0257537 0.0159509 -0.0225 -0.0257344 0.0163502 -0.0275 -0.0253547 0.016828 -0.0275 -0.0250318 0.0163663 -0.0225 -0.0253418 0.0168415 -0.0225 -0.0250242 0.0173534 -0.0275 -0.0247942 0.0173632 -0.0225 -0.0247908 0.0179115 -0.0275 -0.0246489 0.0179166 -0.0225 -0.024648 -0.0303779 -0.0275 0.0466453 -0.0303278 -0.0225 0.046604 -0.0299616 -0.0275 0.0462463 -0.0291414 -0.0275 0.0435681 -0.0291169 -0.0275 0.0441443 -0.0291139 -0.0225 0.044 -0.0308132 -0.0225 0.046944 -0.0308557 -0.0275 0.0469682 -0.0313812 -0.0275 0.0472058 -0.0313504 -0.0225 0.0471947 -0.0319393 -0.0275 0.0473511 -0.0319231 -0.0225 0.0473482 -0.0325139 -0.0225 0.0474 -0.0325139 -0.0275 0.0474 -0.0299089 -0.0225 0.0461849 -0.0295691 -0.0225 0.0456994 -0.0296187 -0.0275 0.0457826 -0.0293591 -0.0275 0.0452677 -0.0293188 -0.0225 0.0451624 -0.0291655 -0.0225 0.0445902 -0.0291902 -0.0275 0.0447163 -0.0297803 -0.0275 0.0419782 -0.0294779 -0.0275 0.0424693 -0.0295381 -0.0225 0.0423554 -0.0292629 -0.0275 0.0430044 -0.0291619 -0.0225 0.0434305 -0.0293047 -0.0225 0.0428771 -0.030705 -0.0225 0.0411211 -0.0311134 -0.0275 0.0409018 -0.03061 -0.0275 0.0411831 -0.0298556 -0.0225 0.0418801 -0.0302483 -0.0225 0.0414648 -0.0301613 -0.0275 0.0415454 -0.0322255 -0.0275 0.0406122 -0.0323232 -0.0225 0.0406054 -0.0328022 -0.0275 0.0406122 -0.0316572 -0.0275 0.0407097 -0.0312128 -0.0225 0.0408588 -0.0317573 -0.0225 0.0406852 -0.0344178 -0.0275 0.0411831 -0.0339143 -0.0275 0.0409018 -0.0339891 -0.0225 0.0409367 -0.0334551 -0.0225 0.0407329 -0.0333706 -0.0275 0.0407097 -0.0328946 -0.0225 0.0406214 -0.0352868 -0.0225 0.0420325 -0.0355498 -0.0275 0.0424693 -0.0352475 -0.0275 0.0419782 -0.0344814 -0.0225 0.0412271 -0.034918 -0.0225 0.0415958 -0.0348665 -0.0275 0.0415454 -0.0358863 -0.0275 0.0435681 -0.0358925 -0.0225 0.0436193 -0.0359108 -0.0275 0.0441443 -0.0357648 -0.0275 0.0430044 -0.0355772 -0.0225 0.0425248 -0.035781 -0.0225 0.0430588 -0.0354091 -0.0275 0.0457826 -0.0356687 -0.0275 0.0452677 -0.0356551 -0.0225 0.0453011 -0.0358286 -0.0225 0.0447566 -0.0358376 -0.0275 0.0447163 -0.0359085 -0.0225 0.0441906 -0.0353927 -0.0225 0.0458089 -0.0350662 -0.0275 0.0462463 -0.0350491 -0.0225 0.0462656 -0.0346498 -0.0275 0.0466453 -0.034172 -0.0275 0.0469682 -0.0346337 -0.0225 0.0466582 -0.0341585 -0.0225 0.0469758 -0.0336466 -0.0275 0.0472058 -0.0336368 -0.0225 0.0472092 -0.0330885 -0.0275 0.0473511 -0.0330834 -0.0225 0.047352 -0.0216116 0.00778077 -0.055 -0.0216116 0.00721923 -0.05 -0.0216116 0.00778077 -0.05 -0.0255596 0.00414637 -0.05 -0.025 0.0041 -0.05 -0.025 0.0041 -0.055 -0.021704 0.00833465 -0.05 -0.021704 0.00833465 -0.055 -0.0218864 0.00886576 -0.05 -0.0218864 0.00886576 -0.055 -0.0221536 0.00935962 -0.055 -0.0221536 0.00935962 -0.05 -0.0224985 0.00980276 -0.05 -0.0224985 0.00980276 -0.055 -0.0229117 0.0101831 -0.05 -0.0229117 0.0101831 -0.055 -0.0233818 0.0104902 -0.055 -0.0233818 0.0104902 -0.05 -0.023896 0.0107158 -0.05 -0.023896 0.0107158 -0.055 -0.0244404 0.0108536 -0.05 -0.0244404 0.0108536 -0.055 -0.025 0.0109 -0.055 -0.025 0.0109 -0.05 -0.0216116 0.00721923 -0.055 -0.021704 0.00666535 -0.05 -0.021704 0.00666535 -0.055 -0.0218864 0.00613424 -0.055 -0.0218864 0.00613424 -0.05 -0.0221536 0.00564038 -0.055 -0.0221536 0.00564038 -0.05 -0.0224985 0.00519724 -0.05 -0.0224985 0.00519724 -0.055 -0.0229117 0.00481692 -0.055 -0.0229117 0.00481692 -0.05 -0.0233818 0.00450979 -0.055 -0.0233818 0.00450979 -0.05 -0.023896 0.00428422 -0.05 -0.023896 0.00428422 -0.055 -0.0244404 0.00414637 -0.055 -0.0244404 0.00414637 -0.05 -0.0270883 0.00481692 -0.05 -0.0266182 0.00450979 -0.05 -0.0266182 0.00450979 -0.055 -0.026104 0.00428422 -0.05 -0.0255596 0.00414637 -0.055 -0.026104 0.00428422 -0.055 -0.0278464 0.00564038 -0.055 -0.0281136 0.00613424 -0.05 -0.0278464 0.00564038 -0.05 -0.0270883 0.00481692 -0.055 -0.0275015 0.00519724 -0.055 -0.0275015 0.00519724 -0.05 -0.0283884 0.00721923 -0.05 -0.0283884 0.00721923 -0.055 -0.0283884 0.00778077 -0.05 -0.028296 0.00666535 -0.05 -0.0281136 0.00613424 -0.055 -0.028296 0.00666535 -0.055 -0.0278464 0.00935962 -0.05 -0.0281136 0.00886576 -0.05 -0.0281136 0.00886576 -0.055 -0.028296 0.00833465 -0.055 -0.028296 0.00833465 -0.05 -0.0283884 0.00778077 -0.055 -0.0270883 0.0101831 -0.055 -0.0270883 0.0101831 -0.05 -0.0275015 0.00980276 -0.055 -0.0278464 0.00935962 -0.055 -0.0275015 0.00980276 -0.05 -0.0266182 0.0104902 -0.05 -0.0266182 0.0104902 -0.055 -0.026104 0.0107158 -0.055 -0.026104 0.0107158 -0.05 -0.0255596 0.0108536 -0.055 -0.0255596 0.0108536 -0.05 0.0283884 0.00778077 -0.055 0.0283884 0.00721923 -0.05 0.0283884 0.00778077 -0.05 0.0244404 0.00414637 -0.05 0.025 0.0041 -0.05 0.025 0.0041 -0.055 0.028296 0.00833465 -0.05 0.028296 0.00833465 -0.055 0.0281136 0.00886576 -0.05 0.0281136 0.00886576 -0.055 0.0278464 0.00935962 -0.055 0.0278464 0.00935962 -0.05 0.0275015 0.00980276 -0.05 0.0275015 0.00980276 -0.055 0.0270883 0.0101831 -0.05 0.0270883 0.0101831 -0.055 0.0266182 0.0104902 -0.055 0.0266182 0.0104902 -0.05 0.026104 0.0107158 -0.05 0.026104 0.0107158 -0.055 0.0255596 0.0108536 -0.05 0.0255596 0.0108536 -0.055 0.025 0.0109 -0.055 0.025 0.0109 -0.05 0.0283884 0.00721923 -0.055 0.028296 0.00666535 -0.05 0.028296 0.00666535 -0.055 0.0281136 0.00613424 -0.055 0.0281136 0.00613424 -0.05 0.0278464 0.00564038 -0.055 0.0278464 0.00564038 -0.05 0.0275015 0.00519724 -0.05 0.0275015 0.00519724 -0.055 0.0270883 0.00481692 -0.055 0.0270883 0.00481692 -0.05 0.0266182 0.00450979 -0.055 0.0266182 0.00450979 -0.05 0.026104 0.00428422 -0.05 0.026104 0.00428422 -0.055 0.0255596 0.00414637 -0.055 0.0255596 0.00414637 -0.05 0.0229117 0.00481692 -0.05 0.0233818 0.00450979 -0.05 0.0233818 0.00450979 -0.055 0.023896 0.00428422 -0.05 0.0244404 0.00414637 -0.055 0.023896 0.00428422 -0.055 0.0221536 0.00564038 -0.055 0.0218864 0.00613424 -0.05 0.0221536 0.00564038 -0.05 0.0229117 0.00481692 -0.055 0.0224985 0.00519724 -0.055 0.0224985 0.00519724 -0.05 0.0216116 0.00721923 -0.05 0.0216116 0.00721923 -0.055 0.0216116 0.00778077 -0.05 0.021704 0.00666535 -0.05 0.0218864 0.00613424 -0.055 0.021704 0.00666535 -0.055 0.0221536 0.00935962 -0.05 0.0218864 0.00886576 -0.05 0.0218864 0.00886576 -0.055 0.021704 0.00833465 -0.055 0.021704 0.00833465 -0.05 0.0216116 0.00778077 -0.055 0.0229117 0.0101831 -0.055 0.0229117 0.0101831 -0.05 0.0224985 0.00980276 -0.055 0.0221536 0.00935962 -0.055 0.0224985 0.00980276 -0.05 0.0233818 0.0104902 -0.05 0.0233818 0.0104902 -0.055 0.023896 0.0107158 -0.055 0.023896 0.0107158 -0.05 0.0244404 0.0108536 -0.055 0.0244404 0.0108536 -0.05 -0.0216116 0.00721923 0.05 -0.0216031 0.0076443 0.055 -0.0216116 0.00778077 0.05 -0.0252883 0.00411225 0.055 -0.0247117 0.00411225 0.055 -0.025 0.0041 0.05 -0.0216763 0.00821631 0.055 -0.021704 0.00833465 0.05 -0.0218864 0.00886576 0.05 -0.0218452 0.00876771 0.055 -0.0221048 0.00928264 0.055 -0.0221536 0.00935962 0.05 -0.0224477 0.00974629 0.055 -0.0224985 0.00980276 0.05 -0.0229117 0.0101831 0.05 -0.0228641 0.0101453 0.055 -0.0233418 0.0104682 0.055 -0.0233818 0.0104902 0.05 -0.0238673 0.0107058 0.055 -0.023896 0.0107158 0.05 -0.0244404 0.0108536 0.05 -0.0244254 0.0108511 0.055 -0.025 0.0109 0.055 -0.025 0.0109 0.05 -0.0216275 0.00706814 0.055 -0.021704 0.00666535 0.05 -0.021749 0.0065044 0.055 -0.0218864 0.00613424 0.05 -0.0219641 0.00596931 0.055 -0.0222664 0.00547825 0.055 -0.0221536 0.00564038 0.05 -0.0224985 0.00519724 0.05 -0.0226474 0.00504535 0.055 -0.0229117 0.00481692 0.05 -0.0230961 0.00468307 0.055 -0.0235995 0.00440182 0.055 -0.0233818 0.00450979 0.05 -0.023896 0.00428422 0.05 -0.0241433 0.00420971 0.055 -0.0244404 0.00414637 0.05 -0.0269039 0.00468307 0.055 -0.0264005 0.00440182 0.055 -0.0266182 0.00450979 0.05 -0.0258567 0.00420971 0.055 -0.0255596 0.00414637 0.05 -0.026104 0.00428422 0.05 -0.0278464 0.00564038 0.05 -0.0280359 0.00596931 0.055 -0.0277336 0.00547825 0.055 -0.0270883 0.00481692 0.05 -0.0275015 0.00519724 0.05 -0.0273526 0.00504535 0.055 -0.0283725 0.00706814 0.055 -0.0283884 0.00721923 0.05 -0.0283969 0.0076443 0.055 -0.028251 0.0065044 0.055 -0.0281136 0.00613424 0.05 -0.028296 0.00666535 0.05 -0.0278952 0.00928264 0.055 -0.0281548 0.00876771 0.055 -0.0281136 0.00886576 0.05 -0.028296 0.00833465 0.05 -0.0283237 0.00821631 0.055 -0.0283884 0.00778077 0.05 -0.0270883 0.0101831 0.05 -0.0271359 0.0101453 0.055 -0.0275015 0.00980276 0.05 -0.0278464 0.00935962 0.05 -0.0275523 0.00974629 0.055 -0.0266582 0.0104682 0.055 -0.0266182 0.0104902 0.05 -0.026104 0.0107158 0.05 -0.0261327 0.0107058 0.055 -0.0255596 0.0108536 0.05 -0.0255746 0.0108511 0.055 0.0283884 0.00721923 0.05 0.0283969 0.0076443 0.055 0.0283884 0.00778077 0.05 0.0247117 0.00411225 0.055 0.0252883 0.00411225 0.055 0.025 0.0041 0.05 0.0283237 0.00821631 0.055 0.028296 0.00833465 0.05 0.0281136 0.00886576 0.05 0.0281548 0.00876771 0.055 0.0278952 0.00928264 0.055 0.0278464 0.00935962 0.05 0.0275523 0.00974629 0.055 0.0275015 0.00980276 0.05 0.0270883 0.0101831 0.05 0.0271359 0.0101453 0.055 0.0266582 0.0104682 0.055 0.0266182 0.0104902 0.05 0.0261327 0.0107058 0.055 0.026104 0.0107158 0.05 0.0255596 0.0108536 0.05 0.0255746 0.0108511 0.055 0.025 0.0109 0.055 0.025 0.0109 0.05 0.0283725 0.00706814 0.055 0.028296 0.00666535 0.05 0.028251 0.0065044 0.055 0.0281136 0.00613424 0.05 0.0280359 0.00596931 0.055 0.0277336 0.00547825 0.055 0.0278464 0.00564038 0.05 0.0275015 0.00519724 0.05 0.0273526 0.00504535 0.055 0.0270883 0.00481692 0.05 0.0269039 0.00468307 0.055 0.0264005 0.00440182 0.055 0.0266182 0.00450979 0.05 0.026104 0.00428422 0.05 0.0258567 0.00420971 0.055 0.0255596 0.00414637 0.05 0.0230961 0.00468307 0.055 0.0235995 0.00440182 0.055 0.0233818 0.00450979 0.05 0.0241433 0.00420971 0.055 0.0244404 0.00414637 0.05 0.023896 0.00428422 0.05 0.0221536 0.00564038 0.05 0.0219641 0.00596931 0.055 0.0222664 0.00547825 0.055 0.0229117 0.00481692 0.05 0.0224985 0.00519724 0.05 0.0226474 0.00504535 0.055 0.0216275 0.00706814 0.055 0.0216116 0.00721923 0.05 0.0216031 0.0076443 0.055 0.021749 0.0065044 0.055 0.0218864 0.00613424 0.05 0.021704 0.00666535 0.05 0.0221048 0.00928264 0.055 0.0218452 0.00876771 0.055 0.0218864 0.00886576 0.05 0.021704 0.00833465 0.05 0.0216763 0.00821631 0.055 0.0216116 0.00778077 0.05 0.0229117 0.0101831 0.05 0.0228641 0.0101453 0.055 0.0224985 0.00980276 0.05 0.0221536 0.00935962 0.05 0.0224477 0.00974629 0.055 0.0233418 0.0104682 0.055 0.0233818 0.0104902 0.05 0.023896 0.0107158 0.05 0.0238673 0.0107058 0.055 0.0244404 0.0108536 0.05 0.0244254 0.0108511 0.055</float_array>
          <technique_common>
            <accessor count="1256" source="#ID5" stride="3">
              <param name="X" type="float"/>
              <param name="Y" type="float"/>
              <param name="Z" type="float"/>
            </accessor>
          </technique_common>
        </source>
        <source id="ID6">
          <float_array count="3768" id="ID7">0.707107 0.707107 4.90654e-16 0.707107 0.707107 4.90654e-16 0.707107 0.707107 4.90654e-16 0.707107 0.707107 4.90654e-16 0.707107 0.707107 4.90654e-16 0.707107 0.707107 4.90654e-16 0.707107 0.707107 4.90654e-16 0.707107 0.707107 4.90654e-16 1 0 0 1 0 0 1 0 0 1 0 0 1 0 0 1 0 0 1 0 0 1 0 0 -1 -0 -0 -1 -0 -0 -1 -0 -0 -1 -0 -0 -1 -0 -0 -1 -0 -0 -1 -0 -0 -1 -0 -0 0 1 0 0 1 0 0 1 0 0 1 0 0 1 0 0 1 0 0 1 0 0 1 0 0 1 0 0 1 0 0 1 0 0 1 0 0 1 0 0 1 0 0 1 0 0 1 0 0 1 0 0 1 0 0 1 0 0 1 0 0 1 0 0 1 0 0 1 0 0 1 0 0 1 0 0 1 0 0 1 0 0 1 0 0 1 0 0 1 0 0 1 0 0 1 0 0 1 0 0 1 0 0 1 0 0 1 0 0 1 0 0 1 0 0 1 0 0 1 0 0 1 0 0 1 0 0 1 0 0 1 0 0 1 0 0 1 0 0 1 0 0 1 0 0 1 0 0 1 0 0 1 0 0 1 0 0 1 0 0 1 0 0 1 0 0 1 0 0 1 0 0 1 0 0 1 0 0 1 0 0 1 0 0 1 0 0 1 0 0 1 0 0 1 0 0 1 0 0 1 0 0 1 0 0 1 0 0 1 0 0 1 0 0 1 0 0 1 0 0 1 0 0 1 0 0 1 0 0 1 0 0 1 0 0 1 0 0 1 0 0 1 0 0 1 0 0 1 0 0 1 0 0 1 0 0 1 0 0 1 0 0 1 0 0 1 0 0 1 0 0 1 0 0 1 0 0 1 0 0 1 0 0 1 0 0 1 0 0 1 0 0 1 0 0 1 0 0 1 0 0 1 0 0 1 0 0 1 0 0 1 0 0 1 0 0 1 0 0 1 0 0 1 0 0 1 0 0 1 0 0 1 0 0 1 0 0 1 0 0 1 0 0 1 0 0 1 0 0 1 0 0 1 0 0 1 0 0 1 0 0 1 0 0 1 0 0 1 0 0 1 0 0 1 0 0 1 0 0 1 0 0 1 0 0 1 0 0 1 0 0 1 0 0 1 0 0 1 0 0 1 0 0 1 0 0 1 0 0 1 0 0 1 0 0 1 0 0 1 0 0 1 0 0 1 0 0 1 0 0 1 0 0 1 0 0 1 0 0 1 0 0 1 0 0 1 0 0 1 0 0 1 0 0 1 0 0 -3.08395e-16 1 0 -3.08395e-16 1 0 -3.08395e-16 1 0 -3.08395e-16 1 0 -3.08395e-16 1 0 -3.08395e-16 1 0 -3.08395e-16 1 0 -3.08395e-16 1 0 -3.08395e-16 1 0 -3.08395e-16 1 0 -3.08395e-16 1 0 -3.08395e-16 1 0 -3.08395e-16 1 0 -3.08395e-16 1 0 -3.08395e-16 1 0 -3.08395e-16 1 0 -3.08395e-16 1 0 -3.08395e-16 1 0 -3.08395e-16 1 0 -3.08395e-16 1 0 -3.08395e-16 1 0 -3.08395e-16 1 0 -3.08395e-16 1 0 -3.08395e-16 1 0 -3.08395e-16 1 0 -3.08395e-16 1 0 -3.08395e-16 1 0 -3.08395e-16 1 0 -3.08395e-16 1 0 -3.08395e-16 1 0 -3.08395e-16 1 0 -3.08395e-16 1 0 -3.08395e-16 1 0 -3.08395e-16 1 0 -3.08395e-16 1 0 -3.08395e-16 1 0 -3.08395e-16 1 0 -3.08395e-16 1 0 -3.08395e-16 1 0 -3.08395e-16 1 0 -3.08395e-16 1 0 -3.08395e-16 1 0 -3.08395e-16 1 0 -3.08395e-16 1 0 -3.08395e-16 1 0 -3.08395e-16 1 0 -3.08395e-16 1 0 -3.08395e-16 1 0 -3.08395e-16 1 0 -3.08395e-16 1 0 -3.08395e-16 1 0 -3.08395e-16 1 0 -3.08395e-16 1 0 -3.08395e-16 1 0 -3.08395e-16 1 0 -3.08395e-16 1 0 -3.08395e-16 1 0 -3.08395e-16 1 0 -3.08395e-16 1 0 -3.08395e-16 1 0 -3.08395e-16 1 0 -3.08395e-16 1 0 -3.08395e-16 1 0 -3.08395e-16 1 0 -3.08395e-16 1 0 -3.08395e-16 1 0 -3.08395e-16 1 0 -3.08395e-16 1 0 -3.08395e-16 1 0 -3.08395e-16 1 0 -3.08395e-16 1 0 -3.08395e-16 1 0 -3.08395e-16 1 0 -3.08395e-16 1 0 -3.08395e-16 1 0 -3.08395e-16 1 0 -3.08395e-16 1 0 -3.08395e-16 1 0 -3.08395e-16 1 0 -3.08395e-16 1 0 -3.08395e-16 1 0 1 0 0 1 0 0 1 0 0 1 0 0 2.77556e-16 -1 0 2.77556e-16 -1 0 2.77556e-16 -1 0 2.77556e-16 -1 0 2.77556e-16 -1 0 2.77556e-16 -1 0 2.77556e-16 -1 0 2.77556e-16 -1 0 2.77556e-16 -1 0 2.77556e-16 -1 0 2.77556e-16 -1 0 2.77556e-16 -1 0 2.77556e-16 -1 0 2.77556e-16 -1 0 2.77556e-16 -1 0 2.77556e-16 -1 0 2.77556e-16 -1 0 2.77556e-16 -1 0 2.77556e-16 -1 0 2.77556e-16 -1 0 2.77556e-16 -1 0 2.77556e-16 -1 0 2.77556e-16 -1 0 2.77556e-16 -1 0 2.77556e-16 -1 0 2.77556e-16 -1 0 2.77556e-16 -1 0 2.77556e-16 -1 0 2.77556e-16 -1 0 2.77556e-16 -1 0 2.77556e-16 -1 0 2.77556e-16 -1 0 2.77556e-16 -1 0 2.77556e-16 -1 0 2.77556e-16 -1 0 2.77556e-16 -1 0 2.77556e-16 -1 0 2.77556e-16 -1 0 2.77556e-16 -1 0 2.77556e-16 -1 0 2.77556e-16 -1 0 2.77556e-16 -1 0 2.77556e-16 -1 0 2.77556e-16 -1 0 2.77556e-16 -1 0 2.77556e-16 -1 0 2.77556e-16 -1 0 2.77556e-16 -1 0 2.77556e-16 -1 0 2.77556e-16 -1 0 2.77556e-16 -1 0 2.77556e-16 -1 0 2.77556e-16 -1 0 2.77556e-16 -1 0 2.77556e-16 -1 0 2.77556e-16 -1 0 2.77556e-16 -1 0 2.77556e-16 -1 0 2.77556e-16 -1 0 2.77556e-16 -1 0 2.77556e-16 -1 0 2.77556e-16 -1 0 2.77556e-16 -1 0 2.77556e-16 -1 0 2.77556e-16 -1 0 2.77556e-16 -1 0 2.77556e-16 -1 0 2.77556e-16 -1 0 2.77556e-16 -1 0 2.77556e-16 -1 0 2.77556e-16 -1 0 2.77556e-16 -1 0 2.77556e-16 -1 0 2.77556e-16 -1 0 2.77556e-16 -1 0 2.77556e-16 -1 0 2.77556e-16 -1 0 2.77556e-16 -1 0 2.77556e-16 -1 0 2.77556e-16 -1 0 2.77556e-16 -1 0 -1 -1.26162e-16 0 -1 -1.26162e-16 0 -1 -1.26162e-16 0 -1 -1.26162e-16 0 -1 -1.26162e-16 0 -1 -1.26162e-16 0 -1 -1.26162e-16 0 -1 -1.26162e-16 0 -1 -1.26162e-16 0 -1 -1.26162e-16 0 -1 -1.26162e-16 0 -1 -1.26162e-16 0 -1 -1.26162e-16 0 -1 -1.26162e-16 0 -1 -1.26162e-16 0 -1 -1.26162e-16 0 -1 -1.26162e-16 0 -1 -1.26162e-16 0 -1 -1.26162e-16 0 -1 -1.26162e-16 0 -1 -1.26162e-16 0 -1 -1.26162e-16 0 -1 -1.26162e-16 0 -1 -1.26162e-16 0 -1 -1.26162e-16 0 -1 -1.26162e-16 0 -1 -1.26162e-16 0 -1 -1.26162e-16 0 -1 -1.26162e-16 0 -1 -1.26162e-16 0 -1 -1.26162e-16 0 -1 -1.26162e-16 0 -1 -1.26162e-16 0 -1 -1.26162e-16 0 -1 -1.26162e-16 0 -1 -1.26162e-16 0 -1 -1.26162e-16 0 -1 -1.26162e-16 0 -1 -1.26162e-16 0 -1 -1.26162e-16 0 -1 -1.26162e-16 0 -1 -1.26162e-16 0 -1 -1.26162e-16 0 -1 -1.26162e-16 0 -1 -1.26162e-16 0 -1 -1.26162e-16 0 -1 -1.26162e-16 0 -1 -1.26162e-16 0 -1 -1.26162e-16 0 -1 -1.26162e-16 0 -1 -1.26162e-16 0 -1 -1.26162e-16 0 -1 -1.26162e-16 0 -1 -1.26162e-16 0 -1 -1.26162e-16 0 -1 -1.26162e-16 0 -1 -1.26162e-16 0 -1 -1.26162e-16 0 -1 -1.26162e-16 0 -1 -1.26162e-16 0 -1 -1.26162e-16 0 -1 -1.26162e-16 0 -1 -1.26162e-16 0 -1 -1.26162e-16 0 -1 -1.26162e-16 0 -1 -1.26162e-16 0 -1 -1.26162e-16 0 -1 -1.26162e-16 0 -1 -1.26162e-16 0 -1 -1.26162e-16 0 -1 -1.26162e-16 0 -1 -1.26162e-16 0 -1 -1.26162e-16 0 -1 -1.26162e-16 0 -1 -1.26162e-16 0 -1 -1.26162e-16 0 -1 -1.26162e-16 0 -1 -1.26162e-16 0 -1 -1.26162e-16 0 -1 -1.26162e-16 0 -1 -1.26162e-16 0 -1 -1.26162e-16 0 -1 -1.26162e-16 0 -1 -1.26162e-16 0 -1 -1.26162e-16 0 -1 -1.26162e-16 0 -1 -1.26162e-16 0 -1 -1.26162e-16 0 -1 -1.26162e-16 0 -1 -1.26162e-16 0 -1 -1.26162e-16 0 -1 -1.26162e-16 0 -1 -1.26162e-16 0 -1 -1.26162e-16 0 -1 -1.26162e-16 0 -1 -1.26162e-16 0 -1 -1.26162e-16 0 -1 -1.26162e-16 0 -1 -1.26162e-16 0 -1 -1.26162e-16 0 -1 -1.26162e-16 0 -1 -1.26162e-16 0 -1 -1.26162e-16 0 -1 -1.26162e-16 0 -1 -1.26162e-16 0 -1 -1.26162e-16 0 -1 -1.26162e-16 0 -1 -1.26162e-16 0 -1 -1.26162e-16 0 -1 -1.26162e-16 0 -1 -1.26162e-16 0 -1 -1.26162e-16 0 -1 -1.26162e-16 0 -1 -1.26162e-16 0 -1 -1.26162e-16 0 -1 -1.26162e-16 0 -1 -1.26162e-16 0 -1 -1.26162e-16 0 -1 -1.26162e-16 0 -1 -1.26162e-16 0 -1 -1.26162e-16 0 -1 -1.26162e-16 0 -1 -1.26162e-16 0 -1 -1.26162e-16 0 -1 -1.26162e-16 0 -1 -1.26162e-16 0 -1 -1.26162e-16 0 -1 -1.26162e-16 0 -1 -1.26162e-16 0 -1 -1.26162e-16 0 -1 -1.26162e-16 0 -1 -1.26162e-16 0 -1 -1.26162e-16 0 -1 -1.26162e-16 0 -1 -1.26162e-16 0 -1 -1.26162e-16 0 -1 -1.26162e-16 0 -1 -1.26162e-16 0 -1 -1.26162e-16 0 -1 -1.26162e-16 0 -1 -1.26162e-16 0 -1 -1.26162e-16 0 -1 -1.26162e-16 0 -1 -1.26162e-16 0 -1 -1.26162e-16 0 -1 -1.26162e-16 0 -1 -1.26162e-16 0 -1 -1.26162e-16 0 -1 -1.26162e-16 0 -1 -1.26162e-16 0 -1 -1.26162e-16 0 -1 -1.26162e-16 0 -2.77556e-16 1 0 -2.77556e-16 1 0 -2.77556e-16 1 0 -2.77556e-16 1 0 -2.77556e-16 1 0 -2.77556e-16 1 0 -2.77556e-16 1 0 -2.77556e-16 1 0 -2.77556e-16 1 0 -2.77556e-16 1 0 -2.77556e-16 1 0 -2.77556e-16 1 0 -2.77556e-16 1 0 -2.77556e-16 1 0 -2.77556e-16 1 0 -2.77556e-16 1 0 -2.77556e-16 1 0 -2.77556e-16 1 0 -2.77556e-16 1 0 -2.77556e-16 1 0 -2.77556e-16 1 0 -2.77556e-16 1 0 -2.77556e-16 1 0 -2.77556e-16 1 0 -2.77556e-16 1 0 -2.77556e-16 1 0 -2.77556e-16 1 0 -2.77556e-16 1 0 -2.77556e-16 1 0 -2.77556e-16 1 0 -2.77556e-16 1 0 -2.77556e-16 1 0 -2.77556e-16 1 0 -2.77556e-16 1 0 -2.77556e-16 1 0 -2.77556e-16 1 0 -2.77556e-16 1 0 -2.77556e-16 1 0 -2.77556e-16 1 0 -2.77556e-16 1 0 -2.77556e-16 1 0 -2.77556e-16 1 0 -2.77556e-16 1 0 -2.77556e-16 1 0 -2.77556e-16 1 0 -2.77556e-16 1 0 -2.77556e-16 1 0 -2.77556e-16 1 0 -2.77556e-16 1 0 -2.77556e-16 1 0 -2.77556e-16 1 0 -2.77556e-16 1 0 -2.77556e-16 1 0 -2.77556e-16 1 0 -2.77556e-16 1 0 -2.77556e-16 1 0 -2.77556e-16 1 0 -2.77556e-16 1 0 -2.77556e-16 1 0 -2.77556e-16 1 0 -2.77556e-16 1 0 -2.77556e-16 1 0 -2.77556e-16 1 0 -2.77556e-16 1 0 -2.77556e-16 1 0 -2.77556e-16 1 0 -2.77556e-16 1 0 -2.77556e-16 1 0 -2.77556e-16 1 0 -2.77556e-16 1 0 -2.77556e-16 1 0 -2.77556e-16 1 0 -2.77556e-16 1 0 -2.77556e-16 1 0 -2.77556e-16 1 0 -2.77556e-16 1 0 -2.77556e-16 1 0 -2.77556e-16 1 0 -2.77556e-16 1 0 1 0 0 1 0 0 1 0 0 1 0 0 3.08395e-16 -1 0 3.08395e-16 -1 0 3.08395e-16 -1 0 3.08395e-16 -1 0 3.08395e-16 -1 0 3.08395e-16 -1 0 3.08395e-16 -1 0 3.08395e-16 -1 0 3.08395e-16 -1 0 3.08395e-16 -1 0 3.08395e-16 -1 0 3.08395e-16 -1 0 3.08395e-16 -1 0 3.08395e-16 -1 0 3.08395e-16 -1 0 3.08395e-16 -1 0 3.08395e-16 -1 0 3.08395e-16 -1 0 3.08395e-16 -1 0 3.08395e-16 -1 0 3.08395e-16 -1 0 3.08395e-16 -1 0 3.08395e-16 -1 0 3.08395e-16 -1 0 3.08395e-16 -1 0 3.08395e-16 -1 0 3.08395e-16 -1 0 3.08395e-16 -1 0 3.08395e-16 -1 0 3.08395e-16 -1 0 3.08395e-16 -1 0 3.08395e-16 -1 0 3.08395e-16 -1 0 3.08395e-16 -1 0 3.08395e-16 -1 0 3.08395e-16 -1 0 3.08395e-16 -1 0 3.08395e-16 -1 0 3.08395e-16 -1 0 3.08395e-16 -1 0 3.08395e-16 -1 0 3.08395e-16 -1 0 3.08395e-16 -1 0 3.08395e-16 -1 0 3.08395e-16 -1 0 3.08395e-16 -1 0 3.08395e-16 -1 0 3.08395e-16 -1 0 3.08395e-16 -1 0 3.08395e-16 -1 0 3.08395e-16 -1 0 3.08395e-16 -1 0 3.08395e-16 -1 0 3.08395e-16 -1 0 3.08395e-16 -1 0 3.08395e-16 -1 0 3.08395e-16 -1 0 3.08395e-16 -1 0 3.08395e-16 -1 0 3.08395e-16 -1 0 3.08395e-16 -1 0 3.08395e-16 -1 0 3.08395e-16 -1 0 3.08395e-16 -1 0 3.08395e-16 -1 0 3.08395e-16 -1 0 3.08395e-16 -1 0 3.08395e-16 -1 0 3.08395e-16 -1 0 3.08395e-16 -1 0 3.08395e-16 -1 0 3.08395e-16 -1 0 3.08395e-16 -1 0 3.08395e-16 -1 0 3.08395e-16 -1 0 3.08395e-16 -1 0 3.08395e-16 -1 0 3.08395e-16 -1 0 3.08395e-16 -1 0 3.08395e-16 -1 0 3.08395e-16 -1 -0.62822 9.81583e-17 -0.778036 -0.642788 9.66455e-17 -0.766044 -0.750672 8.33519e-17 -0.660675 -0.9919 -1.60248e-17 0.127018 -0.999099 5.35446e-18 -0.0424412 -1 -5.5147e-24 4.37114e-08 -0.5 1.09259e-16 -0.866025 -0.487695 1.10141e-16 -0.873014 -0.33314 1.18955e-16 -0.942877 -0.34202 1.18553e-16 -0.939693 -0.169001 1.24347e-16 -0.985616 -0.173648 1.24245e-16 -0.984808 1.37149e-11 1.26162e-16 -1 0 1.26162e-16 -1 -0.766044 8.10952e-17 -0.642788 -0.866025 6.30809e-17 -0.5 -0.851529 6.61475e-17 -0.524307 -0.927889 4.70402e-17 -0.372856 -0.939693 4.31498e-17 -0.34202 -0.984808 2.19078e-17 -0.173648 -0.977555 2.65797e-17 -0.210679 -0.803997 -7.50199e-17 0.594633 -0.892926 -5.67985e-17 0.450204 -0.875223 -6.10268e-17 0.483719 -0.956167 -3.6943e-17 0.292823 -0.985871 -2.11329e-17 0.167506 -0.943883 -4.16686e-17 0.330279 -0.532032 -1.06824e-16 0.846724 -0.411901 -1.14962e-16 0.911229 -0.559975 -1.04526e-16 0.82851 -0.781832 -7.86605e-17 0.62349 -0.666347 -9.40715e-17 0.745642 -0.691939 -9.10832e-17 0.721956 -0.0848059 -1.25707e-16 0.996397 -0.0560704 -1.25963e-16 0.998427 0.0848059 -1.25707e-16 0.996397 -0.251978 -1.22091e-16 0.967733 -0.382683 -1.16558e-16 0.92388 -0.222521 -1.22999e-16 0.974928 0.559975 -1.04526e-16 0.82851 0.411901 -1.14962e-16 0.911228 0.433884 -1.13668e-16 0.900969 0.276836 -1.21231e-16 0.960917 0.251978 -1.22091e-16 0.967733 0.111964 -1.25368e-16 0.993712 0.815561 -7.30061e-17 0.578671 0.892926 -5.67984e-17 0.450204 0.803997 -7.50199e-17 0.594633 0.578671 -1.02893e-16 0.815561 0.707107 -8.92098e-17 0.707107 0.691939 -9.10832e-17 0.721956 0.9919 -1.60248e-17 0.127018 0.993712 -1.41256e-17 0.111965 0.999099 5.35449e-18 -0.0424415 0.956167 -3.6943e-17 0.292823 0.900969 -5.47395e-17 0.433884 0.960917 -3.49261e-17 0.276836 0.851529 6.61475e-17 -0.524307 0.927889 4.70402e-17 -0.372856 0.923879 4.828e-17 -0.382684 0.974928 2.80736e-17 -0.222521 0.977555 2.65797e-17 -0.210679 0.998427 7.07395e-18 -0.0560705 0.846724 6.71221e-17 -0.532032 0.750672 8.33519e-17 -0.660675 0.745642 8.40674e-17 -0.666346 0.62822 9.81583e-17 -0.778036 0.487695 1.10141e-16 -0.873014 0.62349 9.86372e-17 -0.781831 0.483719 1.1042e-16 -0.875223 0.33314 1.18955e-16 -0.942877 0.330279 1.19082e-16 -0.943883 0.169001 1.24347e-16 -0.985616 0.167506 1.24379e-16 -0.985871 -0.62822 9.81583e-17 -0.778036 -0.642788 9.66455e-17 -0.766044 -0.750672 8.33519e-17 -0.660675 -0.9919 -1.60248e-17 0.127018 -0.999099 5.35446e-18 -0.0424412 -1 -5.5147e-24 4.37114e-08 -0.5 1.09259e-16 -0.866025 -0.487695 1.10141e-16 -0.873014 -0.33314 1.18955e-16 -0.942877 -0.34202 1.18553e-16 -0.939693 -0.169001 1.24347e-16 -0.985616 -0.173648 1.24245e-16 -0.984808 1.37149e-11 1.26162e-16 -1 0 1.26162e-16 -1 -0.766044 8.10952e-17 -0.642788 -0.866025 6.30809e-17 -0.5 -0.851529 6.61475e-17 -0.524307 -0.927889 4.70402e-17 -0.372856 -0.939693 4.31498e-17 -0.34202 -0.984808 2.19078e-17 -0.173648 -0.977555 2.65797e-17 -0.210679 -0.803997 -7.50199e-17 0.594633 -0.892926 -5.67985e-17 0.450204 -0.875223 -6.10268e-17 0.483719 -0.956167 -3.6943e-17 0.292823 -0.985871 -2.11329e-17 0.167506 -0.943883 -4.16686e-17 0.330279 -0.532032 -1.06824e-16 0.846724 -0.411901 -1.14962e-16 0.911229 -0.559975 -1.04526e-16 0.82851 -0.781832 -7.86605e-17 0.62349 -0.666347 -9.40715e-17 0.745642 -0.691939 -9.10832e-17 0.721956 -0.0848059 -1.25707e-16 0.996397 -0.0560704 -1.25963e-16 0.998427 0.0848059 -1.25707e-16 0.996397 -0.251978 -1.22091e-16 0.967733 -0.382683 -1.16558e-16 0.92388 -0.222521 -1.22999e-16 0.974928 0.559975 -1.04526e-16 0.82851 0.411901 -1.14962e-16 0.911228 0.433884 -1.13668e-16 0.900969 0.276836 -1.21231e-16 0.960917 0.251978 -1.22091e-16 0.967733 0.111964 -1.25368e-16 0.993712 0.815561 -7.30061e-17 0.578671 0.892926 -5.67984e-17 0.450204 0.803997 -7.50199e-17 0.594633 0.578671 -1.02893e-16 0.815561 0.707107 -8.92098e-17 0.707107 0.691939 -9.10832e-17 0.721956 0.9919 -1.60248e-17 0.127018 0.993712 -1.41256e-17 0.111965 0.999099 5.35449e-18 -0.0424415 0.956167 -3.6943e-17 0.292823 0.900969 -5.47395e-17 0.433884 0.960917 -3.49261e-17 0.276836 0.851529 6.61475e-17 -0.524307 0.927889 4.70402e-17 -0.372856 0.923879 4.828e-17 -0.382684 0.974928 2.80736e-17 -0.222521 0.977555 2.65797e-17 -0.210679 0.998427 7.07395e-18 -0.0560705 0.846724 6.71221e-17 -0.532032 0.750672 8.33519e-17 -0.660675 0.745642 8.40674e-17 -0.666346 0.62822 9.81583e-17 -0.778036 0.487695 1.10141e-16 -0.873014 0.62349 9.86372e-17 -0.781831 0.483719 1.1042e-16 -0.875223 0.33314 1.18955e-16 -0.942877 0.330279 1.19082e-16 -0.943883 0.169001 1.24347e-16 -0.985616 0.167506 1.24379e-16 -0.985871 -0.62822 9.81583e-17 -0.778036 -0.642788 9.66455e-17 -0.766044 -0.750672 8.33519e-17 -0.660675 -0.9919 -1.60248e-17 0.127018 -0.999099 5.35446e-18 -0.0424412 -1 -5.5147e-24 4.37114e-08 -0.5 1.09259e-16 -0.866025 -0.487695 1.10141e-16 -0.873014 -0.33314 1.18955e-16 -0.942877 -0.34202 1.18553e-16 -0.939693 -0.169001 1.24347e-16 -0.985616 -0.173648 1.24245e-16 -0.984808 1.37149e-11 1.26162e-16 -1 0 1.26162e-16 -1 -0.766044 8.10952e-17 -0.642788 -0.866025 6.30809e-17 -0.5 -0.851529 6.61475e-17 -0.524307 -0.927889 4.70402e-17 -0.372856 -0.939693 4.31498e-17 -0.34202 -0.984808 2.19078e-17 -0.173648 -0.977555 2.65797e-17 -0.210679 -0.803997 -7.50199e-17 0.594633 -0.892926 -5.67985e-17 0.450204 -0.875223 -6.10268e-17 0.483719 -0.956167 -3.6943e-17 0.292823 -0.985871 -2.11329e-17 0.167506 -0.943883 -4.16686e-17 0.330279 -0.532032 -1.06824e-16 0.846724 -0.411901 -1.14962e-16 0.911229 -0.559975 -1.04526e-16 0.82851 -0.781832 -7.86605e-17 0.62349 -0.666347 -9.40715e-17 0.745642 -0.691939 -9.10832e-17 0.721956 -0.0848059 -1.25707e-16 0.996397 -0.0560704 -1.25963e-16 0.998427 0.0848059 -1.25707e-16 0.996397 -0.251978 -1.22091e-16 0.967733 -0.382683 -1.16558e-16 0.92388 -0.222521 -1.22999e-16 0.974928 0.559975 -1.04526e-16 0.82851 0.411901 -1.14962e-16 0.911228 0.433884 -1.13668e-16 0.900969 0.276836 -1.21231e-16 0.960917 0.251978 -1.22091e-16 0.967733 0.111964 -1.25368e-16 0.993712 0.815561 -7.30061e-17 0.578671 0.892926 -5.67984e-17 0.450204 0.803997 -7.50199e-17 0.594633 0.578671 -1.02893e-16 0.815561 0.707107 -8.92098e-17 0.707107 0.691939 -9.10832e-17 0.721956 0.9919 -1.60248e-17 0.127018 0.993712 -1.41256e-17 0.111965 0.999099 5.35449e-18 -0.0424415 0.956167 -3.6943e-17 0.292823 0.900969 -5.47395e-17 0.433884 0.960917 -3.49261e-17 0.276836 0.851529 6.61475e-17 -0.524307 0.927889 4.70402e-17 -0.372856 0.923879 4.828e-17 -0.382684 0.974928 2.80736e-17 -0.222521 0.977555 2.65797e-17 -0.210679 0.998427 7.07395e-18 -0.0560705 0.846724 6.71221e-17 -0.532032 0.750672 8.33519e-17 -0.660675 0.745642 8.40674e-17 -0.666346 0.62822 9.81583e-17 -0.778036 0.487695 1.10141e-16 -0.873014 0.62349 9.86372e-17 -0.781831 0.483719 1.1042e-16 -0.875223 0.33314 1.18955e-16 -0.942877 0.330279 1.19082e-16 -0.943883 0.169001 1.24347e-16 -0.985616 0.167506 1.24379e-16 -0.985871 -0.62822 9.81583e-17 -0.778036 -0.642788 9.66455e-17 -0.766044 -0.750672 8.33519e-17 -0.660675 -0.9919 -1.60248e-17 0.127018 -0.999099 5.35446e-18 -0.0424412 -1 -5.5147e-24 4.37114e-08 -0.5 1.09259e-16 -0.866025 -0.487695 1.10141e-16 -0.873014 -0.33314 1.18955e-16 -0.942877 -0.34202 1.18553e-16 -0.939693 -0.169001 1.24347e-16 -0.985616 -0.173648 1.24245e-16 -0.984808 1.37149e-11 1.26162e-16 -1 0 1.26162e-16 -1 -0.766044 8.10952e-17 -0.642788 -0.866025 6.30809e-17 -0.5 -0.851529 6.61475e-17 -0.524307 -0.927889 4.70402e-17 -0.372856 -0.939693 4.31498e-17 -0.34202 -0.984808 2.19078e-17 -0.173648 -0.977555 2.65797e-17 -0.210679 -0.803997 -7.50199e-17 0.594633 -0.892926 -5.67985e-17 0.450204 -0.875223 -6.10268e-17 0.483719 -0.956167 -3.6943e-17 0.292823 -0.985871 -2.11329e-17 0.167506 -0.943883 -4.16686e-17 0.330279 -0.532032 -1.06824e-16 0.846724 -0.411901 -1.14962e-16 0.911229 -0.559975 -1.04526e-16 0.82851 -0.781832 -7.86605e-17 0.62349 -0.666347 -9.40715e-17 0.745642 -0.691939 -9.10832e-17 0.721956 -0.0848059 -1.25707e-16 0.996397 -0.0560704 -1.25963e-16 0.998427 0.0848059 -1.25707e-16 0.996397 -0.251978 -1.22091e-16 0.967733 -0.382683 -1.16558e-16 0.92388 -0.222521 -1.22999e-16 0.974928 0.559975 -1.04526e-16 0.82851 0.411901 -1.14962e-16 0.911228 0.433884 -1.13668e-16 0.900969 0.276836 -1.21231e-16 0.960917 0.251978 -1.22091e-16 0.967733 0.111964 -1.25368e-16 0.993712 0.815561 -7.30061e-17 0.578671 0.892926 -5.67984e-17 0.450204 0.803997 -7.50199e-17 0.594633 0.578671 -1.02893e-16 0.815561 0.707107 -8.92098e-17 0.707107 0.691939 -9.10832e-17 0.721956 0.9919 -1.60248e-17 0.127018 0.993712 -1.41256e-17 0.111965 0.999099 5.35449e-18 -0.0424415 0.956167 -3.6943e-17 0.292823 0.900969 -5.47395e-17 0.433884 0.960917 -3.49261e-17 0.276836 0.851529 6.61475e-17 -0.524307 0.927889 4.70402e-17 -0.372856 0.923879 4.828e-17 -0.382684 0.974928 2.80736e-17 -0.222521 0.977555 2.65797e-17 -0.210679 0.998427 7.07395e-18 -0.0560705 0.846724 6.71221e-17 -0.532032 0.750672 8.33519e-17 -0.660675 0.745642 8.40674e-17 -0.666346 0.62822 9.81583e-17 -0.778036 0.487695 1.10141e-16 -0.873014 0.62349 9.86372e-17 -0.781831 0.483719 1.1042e-16 -0.875223 0.33314 1.18955e-16 -0.942877 0.330279 1.19082e-16 -0.943883 0.169001 1.24347e-16 -0.985616 0.167506 1.24379e-16 -0.985871 -0.996584 -0.0825794 -2.29204e-17 -0.996584 0.0825794 2.29204e-17 -0.996584 -0.0825794 -2.29204e-17 0.164595 0.986361 2.7377e-16 8.74228e-08 1 2.77556e-16 8.74228e-08 1 2.77556e-16 -0.9694 -0.245485 -6.81359e-17 -0.9694 -0.245485 -6.81359e-17 -0.915773 -0.401695 -1.11493e-16 -0.915773 -0.401695 -1.11493e-16 -0.837166 -0.546948 -1.51809e-16 -0.837166 -0.546948 -1.51809e-16 -0.735724 -0.677282 -1.87983e-16 -0.735724 -0.677282 -1.87983e-16 -0.614213 -0.789141 -2.1903e-16 -0.614213 -0.789141 -2.1903e-16 -0.475947 -0.879474 -2.44103e-16 -0.475947 -0.879474 -2.44103e-16 -0.324699 -0.945817 -2.62517e-16 -0.324699 -0.945817 -2.62517e-16 -0.164595 -0.986361 -2.7377e-16 -0.164595 -0.986361 -2.7377e-16 1.37149e-11 -1 -2.77556e-16 -0 -1 -2.77556e-16 -0.996584 0.0825792 2.29203e-17 -0.9694 0.245485 6.81359e-17 -0.9694 0.245485 6.81359e-17 -0.915773 0.401695 1.11493e-16 -0.915773 0.401695 1.11493e-16 -0.837166 0.546948 1.51809e-16 -0.837166 0.546948 1.51809e-16 -0.735724 0.677282 1.87983e-16 -0.735724 0.677282 1.87983e-16 -0.614213 0.78914 2.1903e-16 -0.614213 0.789141 2.19031e-16 -0.475947 0.879474 2.44103e-16 -0.475947 0.879474 2.44103e-16 -0.3247 0.945817 2.62517e-16 -0.324699 0.945817 2.62517e-16 -0.164595 0.986361 2.7377e-16 -0.164595 0.986361 2.7377e-16 0.614213 0.78914 2.1903e-16 0.475947 0.879474 2.44103e-16 0.475947 0.879474 2.44103e-16 0.324699 0.945817 2.62517e-16 0.164595 0.986361 2.7377e-16 0.324699 0.945817 2.62517e-16 0.837167 0.546948 1.51809e-16 0.915773 0.401695 1.11493e-16 0.837167 0.546948 1.51809e-16 0.614213 0.78914 2.1903e-16 0.735724 0.677282 1.87983e-16 0.735724 0.677282 1.87983e-16 0.996584 0.0825794 2.29204e-17 0.996584 0.0825794 2.29204e-17 0.996584 -0.0825794 -2.29204e-17 0.9694 0.245486 6.8136e-17 0.915773 0.401695 1.11493e-16 0.9694 0.245486 6.8136e-17 0.837166 -0.546948 -1.51809e-16 0.915773 -0.401695 -1.11493e-16 0.915773 -0.401695 -1.11493e-16 0.9694 -0.245485 -6.81358e-17 0.9694 -0.245486 -6.8136e-17 0.996584 -0.0825794 -2.29204e-17 0.614213 -0.789141 -2.19031e-16 0.614213 -0.78914 -2.1903e-16 0.735724 -0.677282 -1.87983e-16 0.837166 -0.546948 -1.51809e-16 0.735724 -0.677282 -1.87983e-16 0.475948 -0.879474 -2.44103e-16 0.475947 -0.879474 -2.44103e-16 0.324699 -0.945817 -2.62517e-16 0.3247 -0.945817 -2.62517e-16 0.164595 -0.986361 -2.7377e-16 0.164595 -0.986361 -2.7377e-16 -0.996584 -0.0825794 -2.29204e-17 -0.996584 0.0825794 2.29204e-17 -0.996584 -0.0825794 -2.29204e-17 0.164595 0.986361 2.7377e-16 8.74228e-08 1 2.77556e-16 8.74228e-08 1 2.77556e-16 -0.9694 -0.245485 -6.81359e-17 -0.9694 -0.245485 -6.81359e-17 -0.915773 -0.401695 -1.11493e-16 -0.915773 -0.401695 -1.11493e-16 -0.837166 -0.546948 -1.51809e-16 -0.837166 -0.546948 -1.51809e-16 -0.735724 -0.677282 -1.87983e-16 -0.735724 -0.677282 -1.87983e-16 -0.614213 -0.789141 -2.1903e-16 -0.614213 -0.789141 -2.1903e-16 -0.475947 -0.879474 -2.44103e-16 -0.475947 -0.879474 -2.44103e-16 -0.324699 -0.945817 -2.62517e-16 -0.324699 -0.945817 -2.62517e-16 -0.164595 -0.986361 -2.7377e-16 -0.164595 -0.986361 -2.7377e-16 1.37149e-11 -1 -2.77556e-16 -0 -1 -2.77556e-16 -0.996584 0.0825792 2.29203e-17 -0.9694 0.245485 6.81359e-17 -0.9694 0.245485 6.81359e-17 -0.915773 0.401695 1.11493e-16 -0.915773 0.401695 1.11493e-16 -0.837166 0.546948 1.51809e-16 -0.837166 0.546948 1.51809e-16 -0.735724 0.677282 1.87983e-16 -0.735724 0.677282 1.87983e-16 -0.614213 0.78914 2.1903e-16 -0.614213 0.789141 2.19031e-16 -0.475947 0.879474 2.44103e-16 -0.475947 0.879474 2.44103e-16 -0.3247 0.945817 2.62517e-16 -0.324699 0.945817 2.62517e-16 -0.164595 0.986361 2.7377e-16 -0.164595 0.986361 2.7377e-16 0.614213 0.78914 2.1903e-16 0.475947 0.879474 2.44103e-16 0.475947 0.879474 2.44103e-16 0.324699 0.945817 2.62517e-16 0.164595 0.986361 2.7377e-16 0.324699 0.945817 2.62517e-16 0.837167 0.546948 1.51809e-16 0.915773 0.401695 1.11493e-16 0.837167 0.546948 1.51809e-16 0.614213 0.78914 2.1903e-16 0.735724 0.677282 1.87983e-16 0.735724 0.677282 1.87983e-16 0.996584 0.0825794 2.29204e-17 0.996584 0.0825794 2.29204e-17 0.996584 -0.0825794 -2.29204e-17 0.9694 0.245486 6.8136e-17 0.915773 0.401695 1.11493e-16 0.9694 0.245486 6.8136e-17 0.837166 -0.546948 -1.51809e-16 0.915773 -0.401695 -1.11493e-16 0.915773 -0.401695 -1.11493e-16 0.9694 -0.245485 -6.81358e-17 0.9694 -0.245486 -6.8136e-17 0.996584 -0.0825794 -2.29204e-17 0.614213 -0.789141 -2.19031e-16 0.614213 -0.78914 -2.1903e-16 0.735724 -0.677282 -1.87983e-16 0.837166 -0.546948 -1.51809e-16 0.735724 -0.677282 -1.87983e-16 0.475948 -0.879474 -2.44103e-16 0.475947 -0.879474 -2.44103e-16 0.324699 -0.945817 -2.62517e-16 0.3247 -0.945817 -2.62517e-16 0.164595 -0.986361 -2.7377e-16 0.164595 -0.986361 -2.7377e-16 -0.996584 0.0825792 2.29203e-17 -0.999099 -0.0424412 -1.17798e-17 -0.996584 -0.0825794 -2.29204e-17 0.0848059 0.996397 2.76556e-16 -0.0848059 0.996397 2.76556e-16 8.74228e-08 1 2.77556e-16 -0.977555 -0.210679 -5.84752e-17 -0.9694 -0.245485 -6.81359e-17 -0.915773 -0.401695 -1.11493e-16 -0.927889 -0.372856 -1.03488e-16 -0.851529 -0.524307 -1.45525e-16 -0.837166 -0.546948 -1.51809e-16 -0.750672 -0.660675 -1.83374e-16 -0.735724 -0.677282 -1.87983e-16 -0.614213 -0.789141 -2.1903e-16 -0.62822 -0.778036 -2.15948e-16 -0.487695 -0.873014 -2.4231e-16 -0.475947 -0.879474 -2.44103e-16 -0.33314 -0.942877 -2.61701e-16 -0.324699 -0.945817 -2.62517e-16 -0.164595 -0.986361 -2.7377e-16 -0.169001 -0.985616 -2.73563e-16 1.05471e-15 -1 -2.77556e-16 1.37159e-11 -1 -2.77556e-16 -0.9919 0.127018 3.52545e-17 -0.9694 0.245485 6.81359e-17 -0.956167 0.292823 8.12747e-17 -0.915773 0.401695 1.11493e-16 -0.892926 0.450204 1.24957e-16 -0.803997 0.594633 1.65044e-16 -0.837166 0.546948 1.51809e-16 -0.735724 0.677282 1.87983e-16 -0.691939 0.721956 2.00383e-16 -0.614213 0.78914 2.1903e-16 -0.559975 0.82851 2.29958e-16 -0.411901 0.911229 2.52917e-16 -0.475947 0.879474 2.44103e-16 -0.324699 0.945817 2.62517e-16 -0.251978 0.967733 2.686e-16 -0.164595 0.986361 2.7377e-16 0.559975 0.82851 2.29958e-16 0.411901 0.911228 2.52917e-16 0.475947 0.879474 2.44103e-16 0.251978 0.967733 2.686e-16 0.164595 0.986361 2.7377e-16 0.324699 0.945817 2.62517e-16 0.837167 0.546948 1.51809e-16 0.892926 0.450204 1.24957e-16 0.803997 0.594633 1.65044e-16 0.614213 0.78914 2.1903e-16 0.735724 0.677282 1.87983e-16 0.691939 0.721956 2.00383e-16 0.9919 0.127018 3.52545e-17 0.996584 0.0825794 2.29204e-17 0.999099 -0.0424415 -1.17799e-17 0.956167 0.292823 8.12747e-17 0.915773 0.401695 1.11493e-16 0.9694 0.245486 6.8136e-17 0.851529 -0.524307 -1.45524e-16 0.927889 -0.372856 -1.03488e-16 0.915773 -0.401695 -1.11493e-16 0.9694 -0.245485 -6.81358e-17 0.977555 -0.210679 -5.84753e-17 0.996584 -0.0825794 -2.29204e-17 0.614213 -0.789141 -2.19031e-16 0.62822 -0.778036 -2.15948e-16 0.735724 -0.677282 -1.87983e-16 0.837166 -0.546948 -1.51809e-16 0.750672 -0.660675 -1.83374e-16 0.487695 -0.873014 -2.4231e-16 0.475947 -0.879474 -2.44103e-16 0.324699 -0.945817 -2.62517e-16 0.33314 -0.942877 -2.61701e-16 0.164595 -0.986361 -2.7377e-16 0.169001 -0.985616 -2.73563e-16 -0.996584 0.0825792 2.29203e-17 -0.999099 -0.0424412 -1.17798e-17 -0.996584 -0.0825794 -2.29204e-17 0.0848059 0.996397 2.76556e-16 -0.0848059 0.996397 2.76556e-16 8.74228e-08 1 2.77556e-16 -0.977555 -0.210679 -5.84752e-17 -0.9694 -0.245485 -6.81359e-17 -0.915773 -0.401695 -1.11493e-16 -0.927889 -0.372856 -1.03488e-16 -0.851529 -0.524307 -1.45525e-16 -0.837166 -0.546948 -1.51809e-16 -0.750672 -0.660675 -1.83374e-16 -0.735724 -0.677282 -1.87983e-16 -0.614213 -0.789141 -2.1903e-16 -0.62822 -0.778036 -2.15948e-16 -0.487695 -0.873014 -2.4231e-16 -0.475947 -0.879474 -2.44103e-16 -0.33314 -0.942877 -2.61701e-16 -0.324699 -0.945817 -2.62517e-16 -0.164595 -0.986361 -2.7377e-16 -0.169001 -0.985616 -2.73563e-16 1.05471e-15 -1 -2.77556e-16 1.37159e-11 -1 -2.77556e-16 -0.9919 0.127018 3.52545e-17 -0.9694 0.245485 6.81359e-17 -0.956167 0.292823 8.12747e-17 -0.915773 0.401695 1.11493e-16 -0.892926 0.450204 1.24957e-16 -0.803997 0.594633 1.65044e-16 -0.837166 0.546948 1.51809e-16 -0.735724 0.677282 1.87983e-16 -0.691939 0.721956 2.00383e-16 -0.614213 0.78914 2.1903e-16 -0.559975 0.82851 2.29958e-16 -0.411901 0.911229 2.52917e-16 -0.475947 0.879474 2.44103e-16 -0.324699 0.945817 2.62517e-16 -0.251978 0.967733 2.686e-16 -0.164595 0.986361 2.7377e-16 0.559975 0.82851 2.29958e-16 0.411901 0.911228 2.52917e-16 0.475947 0.879474 2.44103e-16 0.251978 0.967733 2.686e-16 0.164595 0.986361 2.7377e-16 0.324699 0.945817 2.62517e-16 0.837167 0.546948 1.51809e-16 0.892926 0.450204 1.24957e-16 0.803997 0.594633 1.65044e-16 0.614213 0.78914 2.1903e-16 0.735724 0.677282 1.87983e-16 0.691939 0.721956 2.00383e-16 0.9919 0.127018 3.52545e-17 0.996584 0.0825794 2.29204e-17 0.999099 -0.0424415 -1.17799e-17 0.956167 0.292823 8.12747e-17 0.915773 0.401695 1.11493e-16 0.9694 0.245486 6.8136e-17 0.851529 -0.524307 -1.45524e-16 0.927889 -0.372856 -1.03488e-16 0.915773 -0.401695 -1.11493e-16 0.9694 -0.245485 -6.81358e-17 0.977555 -0.210679 -5.84753e-17 0.996584 -0.0825794 -2.29204e-17 0.614213 -0.789141 -2.19031e-16 0.62822 -0.778036 -2.15948e-16 0.735724 -0.677282 -1.87983e-16 0.837166 -0.546948 -1.51809e-16 0.750672 -0.660675 -1.83374e-16 0.487695 -0.873014 -2.4231e-16 0.475947 -0.879474 -2.44103e-16 0.324699 -0.945817 -2.62517e-16 0.33314 -0.942877 -2.61701e-16 0.164595 -0.986361 -2.7377e-16 0.169001 -0.985616 -2.73563e-16</float_array>
          <technique_common>
            <accessor count="1256" source="#ID7" stride="3">
              <param name="X" type="float"/>
              <param name="Y" type="float"/>
              <param name="Z" type="float"/>
            </accessor>
          </technique_common>
        </source>
        <vertices id="ID8">
          <input semantic="POSITION" source="#ID4"/>
          <input semantic="NORMAL" source="#ID6"/>
        </vertices>
        <triangles count="1264" material="ID9">
          <input offset="0" semantic="VERTEX" source="#ID8"/>
          <p>0 1 2 0 2 3 4 5 6 4 6 7 8 9 10 11 12 9 13 14 15 8 15 9 13 15 8 12 10 9 16 17 18 19 20 21 22 17 19 22 19 21 16 23 17 22 18 17 24 25 26 27 28 29 30 24 31 28 32 33 34 35 36 35 34 37 30 31 38 36 35 39 40 35 41 35 37 41 29 35 42 35 40 42 28 35 29 43 28 44 28 27 44 45 28 46 28 43 46 47 48 28 28 45 32 49 28 50 28 33 50 28 49 47 28 51 52 48 51 28 28 53 54 52 53 28 55 28 56 54 56 28 57 58 59 60 61 62 63 64 65 59 58 66 67 30 38 68 69 70 71 72 73 74 75 76 77 78 79 80 81 82 83 63 65 84 37 34 80 82 84 58 85 66 81 80 86 78 87 88 77 87 78 89 90 91 78 88 35 92 93 94 95 81 86 57 59 96 97 95 86 65 64 98 99 100 101 97 100 95 97 101 100 102 103 85 25 96 26 55 104 105 85 103 66 106 107 102 103 102 107 106 108 109 109 107 106 110 108 111 108 110 109 112 113 114 115 116 111 117 78 118 83 24 26 119 78 120 121 78 122 78 119 122 123 78 124 78 121 124 125 78 126 78 123 126 127 78 128 78 125 128 79 78 127 129 91 90 31 24 83 130 35 131 35 132 131 133 35 134 35 130 134 135 35 136 35 133 136 35 137 39 35 135 137 82 37 84 138 139 99 99 101 138 139 140 141 140 139 138 142 141 143 140 143 141 144 145 142 142 143 144 98 64 145 98 145 144 25 57 96 38 72 67 71 73 146 67 72 71 68 70 146 146 73 68 74 70 69 94 76 75 75 74 69 92 89 93 94 93 76 88 129 147 92 90 89 91 129 88 148 35 147 88 147 35 132 35 149 35 148 149 150 151 152 78 117 120 153 55 56 63 26 154 63 83 26 61 154 155 26 155 154 60 62 156 61 155 62 156 157 158 158 60 156 159 157 160 157 159 158 56 160 153 159 160 56 161 55 162 55 153 162 163 55 164 55 161 164 165 55 166 55 163 166 104 55 167 55 165 167 168 78 55 169 55 170 55 105 170 171 55 172 55 169 172 55 173 168 55 171 173 152 120 117 174 78 175 78 168 175 78 174 118 150 113 151 117 150 152 112 114 115 151 113 112 111 116 110 115 114 116 176 177 178 179 180 181 182 183 184 185 186 187 188 189 190 191 192 193 187 186 194 195 196 197 198 199 200 201 202 203 204 205 196 206 207 208 209 210 211 212 210 209 213 211 210 212 214 215 214 212 209 215 216 217 215 214 216 218 219 194 180 217 216 220 180 216 221 222 189 223 180 220 180 223 181 224 182 179 180 179 182 225 182 226 182 224 226 227 182 228 182 225 228 229 182 230 182 227 230 231 182 232 182 229 232 184 233 182 182 231 183 187 182 234 233 234 182 235 187 236 187 234 236 185 187 237 187 235 237 192 186 193 238 239 240 241 194 242 194 243 242 244 194 245 194 241 245 194 244 218 189 194 246 219 246 194 247 189 248 189 246 248 217 180 249 189 247 190 250 249 189 189 188 221 251 189 252 189 222 252 253 189 254 189 251 254 189 255 250 189 253 255 189 249 180 213 256 211 206 256 207 213 207 256 206 208 240 239 238 202 240 208 238 204 201 203 201 239 202 197 196 205 205 204 203 199 195 197 200 177 198 199 198 195 178 191 176 200 178 177 192 194 186 176 191 193 243 194 192 257 258 259 257 260 258 261 262 263 264 265 266 267 268 269 270 269 268 271 272 273 267 274 268 275 276 277 278 279 280 281 282 283 284 277 285 286 287 288 289 290 291 292 293 294 295 294 296 297 298 292 293 292 298 299 300 297 300 298 297 301 267 302 273 300 299 303 300 273 304 305 306 307 303 273 273 272 307 261 308 273 271 273 308 309 310 261 261 310 308 311 312 261 261 312 309 313 314 261 261 314 311 315 316 261 261 316 313 263 317 261 261 317 315 262 261 318 319 318 269 261 269 318 320 321 269 269 321 319 270 320 269 296 294 293 274 322 264 323 324 267 267 324 325 326 327 267 267 327 323 267 301 326 305 328 267 302 267 328 329 330 305 305 330 328 331 332 305 305 332 329 333 273 299 334 305 333 305 304 331 335 336 305 305 336 306 337 338 305 305 338 335 305 334 339 305 339 337 305 273 333 295 296 340 286 288 340 295 340 288 286 289 287 290 282 291 289 291 287 284 281 283 283 282 290 276 285 277 285 281 284 280 276 275 279 278 266 280 275 278 265 264 322 279 266 265 274 267 322 325 341 267 267 341 322 342 343 344 345 346 347 348 349 350 346 351 347 346 352 353 346 345 354 355 354 356 354 345 356 357 358 359 354 355 360 361 362 363 364 365 366 367 368 369 370 371 372 373 374 375 376 377 378 379 380 381 382 383 384 385 384 386 387 388 389 388 390 391 392 393 394 387 395 396 397 398 399 400 401 402 403 352 404 352 405 397 406 352 403 407 346 408 346 353 408 409 346 410 346 407 410 411 346 412 346 409 412 413 346 414 346 411 414 415 346 416 346 413 416 417 346 418 346 415 418 351 346 417 419 354 420 421 422 423 424 425 426 427 428 429 422 428 427 430 427 354 429 354 427 431 432 354 433 425 429 354 429 425 434 425 435 425 433 435 436 425 437 425 434 437 438 425 439 425 436 439 440 425 441 425 438 441 425 442 426 425 440 442 443 444 445 424 446 425 444 396 447 396 444 443 391 389 388 447 396 395 389 395 387 391 390 448 383 386 384 448 390 342 449 450 451 448 379 385 373 452 374 377 374 452 342 380 379 342 390 343 423 375 421 373 375 423 453 454 360 377 452 378 455 354 456 354 432 456 457 354 458 354 455 458 459 354 460 354 457 460 354 461 430 354 459 420 354 419 461 421 428 422 376 378 462 367 381 380 462 463 464 464 376 462 465 463 466 463 465 464 344 343 467 449 451 466 465 466 451 450 449 468 344 467 468 467 450 468 385 386 448 369 368 372 381 367 369 371 370 362 372 368 370 364 361 363 361 371 362 350 366 365 365 364 363 348 359 349 350 349 366 357 453 358 348 357 359 360 454 354 358 453 360 431 354 454 469 445 470 379 448 342 425 471 352 443 445 469 470 472 473 469 470 473 472 474 475 474 472 470 476 475 477 474 477 475 478 479 476 476 477 478 479 480 446 480 479 478 425 446 481 480 481 446 482 425 483 425 481 483 425 482 471 484 352 485 352 471 485 486 352 487 352 484 487 488 352 489 352 486 489 490 352 491 352 488 491 492 352 493 352 490 493 352 406 405 352 492 404 353 352 397 398 402 399 397 399 353 400 393 401 398 400 402 392 394 382 401 393 392 383 382 394 494 495 496 497 498 499 500 495 501 502 503 504 505 501 495 506 507 508 503 495 509 500 509 495 510 503 511 503 509 511 503 512 504 503 510 512 503 513 514 502 513 503 503 515 516 514 515 503 503 517 518 516 517 503 498 503 519 518 519 503 498 520 499 498 519 520 498 521 522 497 521 498 523 524 525 498 522 526 527 508 528 507 528 508 529 530 531 527 528 532 533 534 535 534 536 535 533 537 538 538 534 533 539 537 540 537 539 538 495 494 540 539 540 494 496 495 541 542 495 540 496 541 543 505 495 542 544 507 506 536 527 532 545 546 526 536 532 535 547 544 548 506 548 544 549 550 547 547 548 549 550 551 552 551 550 549 523 552 524 551 524 552 523 525 553 554 530 553 553 525 554 531 530 554 529 555 522 555 529 531 556 526 555 522 555 526 557 526 558 526 556 558 559 526 560 526 557 560 526 559 545 541 526 561 546 561 526 562 541 563 541 561 563 564 541 565 541 562 565 566 541 567 541 564 567 568 541 569 541 566 569 570 541 571 541 568 571 543 541 572 541 570 572 573 574 575 573 576 574 577 578 579 580 581 582 583 584 585 586 587 588 589 588 587 590 591 592 593 594 595 596 597 598 599 600 601 602 603 604 605 598 606 607 608 609 610 611 612 613 614 615 616 615 617 613 618 619 619 614 613 618 620 621 618 621 619 622 586 623 592 621 620 624 621 592 625 581 626 627 624 592 592 591 627 628 590 577 592 577 590 629 630 577 577 630 628 631 632 577 577 632 629 633 634 577 577 634 631 635 636 577 577 636 633 578 577 637 577 579 635 588 638 577 637 577 638 639 640 588 588 640 638 589 641 588 588 641 639 617 615 614 595 594 587 642 643 586 586 643 644 645 646 586 586 646 642 586 622 645 581 647 586 623 586 647 648 649 581 581 649 647 620 650 592 581 580 648 651 581 650 581 625 582 652 653 581 581 653 626 654 655 581 581 655 652 581 651 656 581 656 654 581 592 650 616 617 657 607 609 657 616 657 609 607 610 608 611 604 612 610 612 608 605 603 602 602 604 611 597 606 598 606 603 605 601 597 596 600 599 585 601 596 599 584 583 593 600 585 584 595 587 586 583 594 593 644 595 586 658 659 660 661 662 663 664 658 665 658 664 659 665 666 667 667 664 665 668 669 666 667 666 669 670 668 671 668 670 669 659 672 660 673 674 672 660 672 674 675 673 676 673 675 674 676 677 678 678 675 676 663 662 677 678 677 662 679 680 681 682 683 684 685 686 687 688 689 690 691 692 693 694 695 696 697 698 699 700 701 702 703 704 705 706 707 708 709 710 711 712 713 714 715 716 717 718 719 720 715 721 722 721 715 717 723 724 722 722 721 723 725 724 726 723 726 724 725 727 728 727 725 726 729 730 728 728 727 729 671 730 731 729 731 730 670 671 731 719 718 716 717 716 718 711 710 720 719 711 720 712 714 709 709 714 710 703 713 704 704 713 712 707 705 708 707 703 705 706 697 699 706 708 697 698 701 700 699 698 700 693 692 702 701 693 702 694 696 691 691 696 692 685 695 686 686 695 694 689 687 690 689 685 687 688 679 681 688 690 679 680 682 684 681 680 684 661 663 683 682 661 683 732 733 734 735 736 737 738 732 739 732 738 733 739 740 741 741 738 739 742 743 740 741 740 743 744 742 745 742 744 743 733 746 734 747 748 746 734 746 748 749 747 750 747 749 748 750 751 752 752 749 750 737 736 751 752 751 736 753 754 755 756 757 758 759 760 761 762 763 764 765 766 767 768 769 770 771 772 773 774 775 776 777 778 779 780 781 782 783 784 785 786 787 788 789 790 791 792 793 794 789 795 796 795 789 791 797 798 796 796 795 797 799 798 800 797 800 798 799 801 802 801 799 800 803 804 802 802 801 803 745 804 805 803 805 804 744 745 805 793 792 790 791 790 792 785 784 794 793 785 794 786 788 783 783 788 784 777 787 778 778 787 786 781 779 782 781 777 779 780 771 773 780 782 771 772 775 774 773 772 774 767 766 776 775 767 776 768 770 765 765 770 766 759 769 760 760 769 768 763 761 764 763 759 761 762 753 755 762 764 753 754 756 758 755 754 758 735 737 757 756 735 757 806 807 808 809 810 811 812 806 813 806 812 807 813 814 815 815 812 813 816 817 814 815 814 817 818 816 819 816 818 817 807 820 808 821 822 820 808 820 822 823 821 824 821 823 822 824 825 826 826 823 824 811 810 825 826 825 810 827 828 829 830 831 832 833 834 835 836 837 838 839 840 841 842 843 844 845 846 847 848 849 850 851 852 853 854 855 856 857 858 859 860 861 862 863 864 865 866 867 868 863 869 870 869 863 865 871 872 870 870 869 871 873 872 874 871 874 872 873 875 876 875 873 874 877 878 876 876 875 877 819 878 879 877 879 878 818 819 879 867 866 864 865 864 866 859 858 868 867 859 868 860 862 857 857 862 858 851 861 852 852 861 860 855 853 856 855 851 853 854 845 847 854 856 845 846 849 848 847 846 848 841 840 850 849 841 850 842 844 839 839 844 840 833 843 834 834 843 842 837 835 838 837 833 835 836 827 829 836 838 827 828 830 832 829 828 832 809 811 831 830 809 831 880 881 882 883 884 885 886 880 887 880 886 881 887 888 889 889 886 887 890 891 888 889 888 891 892 890 893 890 892 891 881 894 882 895 896 894 882 894 896 897 895 898 895 897 896 898 899 900 900 897 898 885 884 899 900 899 884 901 902 903 904 905 906 907 908 909 910 911 912 913 914 915 916 917 918 919 920 921 922 923 924 925 926 927 928 929 930 931 932 933 934 935 936 937 938 939 940 941 942 937 943 944 943 937 939 945 946 944 944 943 945 947 946 948 945 948 946 947 949 950 949 947 948 951 952 950 950 949 951 893 952 953 951 953 952 892 893 953 941 940 938 939 938 940 933 932 942 941 933 942 934 936 931 931 936 932 925 935 926 926 935 934 929 927 930 929 925 927 928 919 921 928 930 919 920 923 922 921 920 922 915 914 924 923 915 924 916 918 913 913 918 914 907 917 908 908 917 916 911 909 912 911 907 909 910 901 903 910 912 901 902 904 906 903 902 906 883 885 905 904 883 905 954 955 956 957 958 959 956 960 961 961 954 956 962 963 960 961 960 963 964 962 965 962 964 963 965 966 967 967 964 965 968 969 966 967 966 969 970 968 971 968 970 969 971 972 973 973 970 971 974 975 972 973 972 975 976 974 977 974 976 975 954 978 955 979 978 980 978 979 955 980 981 982 982 979 980 983 984 981 982 981 984 985 983 986 983 985 984 986 987 988 988 985 986 989 990 987 988 987 990 991 989 992 989 991 990 992 993 994 994 991 992 994 993 958 993 959 958 995 996 997 998 999 1000 1001 1002 1003 1004 1005 1006 1007 1008 1009 1010 1011 1012 1013 1014 1015 1016 1017 1018 1019 1020 1021 1022 1021 1023 1024 1019 1025 1019 1024 1020 1025 1026 1027 1027 1024 1025 1028 1029 1026 1027 1026 1029 977 1028 976 1028 977 1029 1013 1022 1023 1021 1020 1023 1015 1014 1016 1022 1013 1015 1017 1009 1018 1014 1017 1016 1007 1012 1008 1009 1008 1018 1002 1011 1010 1010 1012 1007 1005 1001 1003 1001 1011 1002 1004 1006 995 1005 1003 1006 997 996 1000 1004 995 997 998 957 999 996 998 1000 959 999 957 1030 1031 1032 1033 1034 1035 1032 1036 1037 1037 1030 1032 1038 1039 1036 1037 1036 1039 1040 1038 1041 1038 1040 1039 1041 1042 1043 1043 1040 1041 1044 1045 1042 1043 1042 1045 1046 1044 1047 1044 1046 1045 1047 1048 1049 1049 1046 1047 1050 1051 1048 1049 1048 1051 1052 1050 1053 1050 1052 1051 1030 1054 1031 1055 1054 1056 1054 1055 1031 1056 1057 1058 1058 1055 1056 1059 1060 1057 1058 1057 1060 1061 1059 1062 1059 1061 1060 1062 1063 1064 1064 1061 1062 1065 1066 1063 1064 1063 1066 1067 1065 1068 1065 1067 1066 1068 1069 1070 1070 1067 1068 1070 1069 1034 1069 1035 1034 1071 1072 1073 1074 1075 1076 1077 1078 1079 1080 1081 1082 1083 1084 1085 1086 1087 1088 1089 1090 1091 1092 1093 1094 1095 1096 1097 1098 1097 1099 1100 1095 1101 1095 1100 1096 1101 1102 1103 1103 1100 1101 1104 1105 1102 1103 1102 1105 1053 1104 1052 1104 1053 1105 1089 1098 1099 1097 1096 1099 1091 1090 1092 1098 1089 1091 1093 1085 1094 1090 1093 1092 1083 1088 1084 1085 1084 1094 1078 1087 1086 1086 1088 1083 1081 1077 1079 1077 1087 1078 1080 1082 1071 1081 1079 1082 1073 1072 1076 1080 1071 1073 1074 1033 1075 1072 1074 1076 1035 1075 1033 1106 1107 1108 1109 1110 1111 1112 1113 1108 1108 1107 1112 1114 1113 1115 1112 1115 1113 1114 1116 1117 1116 1114 1115 1118 1119 1117 1117 1116 1118 1120 1119 1121 1118 1121 1119 1120 1122 1123 1122 1120 1121 1124 1125 1123 1123 1122 1124 1126 1125 1127 1124 1127 1125 1126 1128 1129 1128 1126 1127 1106 1130 1107 1130 1131 1132 1131 1130 1106 1133 1134 1132 1132 1131 1133 1135 1134 1136 1133 1136 1134 1135 1137 1138 1137 1135 1136 1139 1140 1138 1138 1137 1139 1141 1140 1142 1139 1142 1140 1141 1143 1144 1143 1141 1142 1145 1110 1144 1144 1143 1145 1145 1111 1110 1146 1147 1148 1149 1150 1151 1152 1153 1154 1155 1156 1157 1158 1159 1160 1161 1162 1163 1164 1165 1166 1167 1168 1169 1170 1171 1172 1173 1172 1174 1175 1170 1176 1170 1175 1171 1176 1177 1178 1178 1175 1176 1179 1180 1177 1178 1177 1180 1128 1179 1129 1179 1128 1180 1164 1173 1174 1172 1171 1174 1166 1165 1167 1173 1164 1166 1168 1160 1169 1165 1168 1167 1158 1163 1159 1160 1159 1169 1153 1162 1161 1161 1163 1158 1156 1152 1154 1152 1162 1153 1155 1157 1146 1156 1154 1157 1148 1147 1151 1155 1146 1148 1149 1109 1150 1147 1149 1151 1111 1150 1109 1181 1182 1183 1184 1185 1186 1187 1188 1183 1183 1182 1187 1189 1188 1190 1187 1190 1188 1189 1191 1192 1191 1189 1190 1193 1194 1192 1192 1191 1193 1195 1194 1196 1193 1196 1194 1195 1197 1198 1197 1195 1196 1199 1200 1198 1198 1197 1199 1201 1200 1202 1199 1202 1200 1201 1203 1204 1203 1201 1202 1181 1205 1182 1205 1206 1207 1206 1205 1181 1208 1209 1207 1207 1206 1208 1210 1209 1211 1208 1211 1209 1210 1212 1213 1212 1210 1211 1214 1215 1213 1213 1212 1214 1216 1215 1217 1214 1217 1215 1216 1218 1219 1218 1216 1217 1220 1185 1219 1219 1218 1220 1220 1186 1185 1221 1222 1223 1224 1225 1226 1227 1228 1229 1230 1231 1232 1233 1234 1235 1236 1237 1238 1239 1240 1241 1242 1243 1244 1245 1246 1247 1248 1247 1249 1250 1245 1251 1245 1250 1246 1251 1252 1253 1253 1250 1251 1254 1255 1252 1253 1252 1255 1203 1254 1204 1254 1203 1255 1239 1248 1249 1247 1246 1249 1241 1240 1242 1248 1239 1241 1243 1235 1244 1240 1243 1242 1233 1238 1234 1235 1234 1244 1228 1237 1236 1236 1238 1233 1231 1227 1229 1227 1237 1228 1230 1232 1221 1231 1229 1232 1223 1222 1226 1230 1221 1223 1224 1184 1225 1222 1224 1226 1186 1225 1184</p>
        </triangles>
      </mesh>
    </geometry>
  </library_geometries>

  <library_visual_scenes>
    <visual_scene id="ID1">
      <node id="ID2">
        <instance_geometry url="#ID3">
          <bind_material>
            <technique_common>
              <instance_material symbol="ID9" target="#ID9"/>
            </technique_common>
          </bind_material>
        </instance_geometry>
      </node>
    </visual_scene>
  </library_visual_scenes>

  <scene>
    <instance_visual_scene url="#ID1"/>
  </scene>

  <library_nodes/>

</COLLADA>
